<?xml version="1.0" encoding="utf-8"?>
<!-- Generator: Adobe Illustrator 25.0.0, SVG Export Plug-In . SVG Version: 6.00 Build 0)  -->
<svg version="1.1" id="Layer_1" xmlns="http://www.w3.org/2000/svg" xmlns:xlink="http://www.w3.org/1999/xlink" x="0px" y="0px"
	 viewBox="0 0 559.42 392.75" style="enable-background:new 0 0 559.42 392.75;" xml:space="preserve">
<style type="text/css">
	.st0{fill:#B7B7B7;}
	.st1{fill:#FFFFFF;}
	.st2{fill:#E35C5C;}
	.st3{fill:#EE7271;}
</style>
<path class="st0" d="M550.11,299.39c0.01,2.48-0.84,4.86-2.35,6.62c-1.52,1.76-3.58,2.76-5.74,2.77H185.99
	c-1.07-0.01-2.12-0.26-3.11-0.73c-0.98-0.48-1.88-1.17-2.63-2.04c-0.75-0.87-1.35-1.91-1.75-3.04c-0.4-1.14-0.61-2.35-0.6-3.58
	V20.04c-0.01-2.48,0.84-4.86,2.35-6.62c1.52-1.76,3.58-2.76,5.74-2.77h356.02c1.07,0.01,2.12,0.25,3.11,0.73
	c0.98,0.48,1.88,1.17,2.63,2.04c0.75,0.87,1.35,1.91,1.75,3.04c0.4,1.14,0.61,2.35,0.6,3.58v0V299.39z"/>
<path class="st1" d="M545.91,294.81c0,2.41-0.83,4.72-2.32,6.42c-1.48,1.7-3.49,2.66-5.59,2.66H190.25c-2.1,0-4.11-0.96-5.59-2.66
	s-2.32-4.01-2.32-6.42V24.75c0-2.41,0.83-4.72,2.32-6.42c1.48-1.7,3.49-2.66,5.59-2.66h347.77c2.1,0,4.1,0.96,5.58,2.67
	c1.48,1.7,2.31,4.01,2.31,6.42V294.81z"/>
<path class="st0" d="M200.93,27.39h326.76c1.24,0,2.44,0.57,3.32,1.58c0.88,1.01,1.38,2.38,1.38,3.81v252.95
	c0,1.43-0.49,2.8-1.38,3.81c-0.88,1.01-2.07,1.58-3.32,1.58H200.93c-1.25,0-2.44-0.57-3.32-1.58c-0.88-1.01-1.37-2.38-1.37-3.81
	V32.78c0-1.43,0.49-2.8,1.37-3.81C198.49,27.96,199.69,27.39,200.93,27.39L200.93,27.39z"/>
<path class="st1" d="M205.07,33.46H523.2c1.24,0,2.44,0.57,3.32,1.58c0.88,1.01,1.38,2.38,1.38,3.81V278.3
	c0,1.43-0.49,2.8-1.38,3.81c-0.88,1.01-2.07,1.58-3.32,1.58H205.07c-1.24,0-2.44-0.57-3.32-1.58c-0.88-1.01-1.37-2.38-1.37-3.81
	V38.85c0-1.43,0.49-2.8,1.37-3.81C202.63,34.02,203.82,33.46,205.07,33.46L205.07,33.46z"/>
<path class="st2" d="M429.69,199.8c-1.25,0-2.49-0.3-3.63-0.89c-0.27-0.14-0.52-0.3-0.76-0.49l-23.12-18.7
	c-1.17-0.95-2.13-2.21-2.79-3.67c-0.66-1.46-1.01-3.08-1.01-4.73v-25.49c0-1.65,0.35-3.27,1.01-4.73c0.66-1.46,1.62-2.72,2.79-3.67
	l23.12-18.69c0.24-0.19,0.49-0.36,0.76-0.5c1.36-0.69,2.85-0.99,4.34-0.85c1.49,0.13,2.92,0.69,4.17,1.63
	c1.25,0.93,2.28,2.21,2.99,3.71c0.71,1.5,1.08,3.19,1.08,4.9v61.89c0,2.73-0.94,5.34-2.62,7.27
	C434.34,198.71,432.06,199.8,429.69,199.8L429.69,199.8z"/>
<path class="st2" d="M377.95,204.81h-64.48c-13.16-0.01-23.82-9.78-23.83-21.83v-48.81c0.01-12.05,10.68-21.82,23.83-21.83h64.65
	c13.06,0.01,23.65,9.71,23.66,21.68v48.96C401.77,195.03,391.1,204.8,377.95,204.81z"/>
<path class="st2" d="M492.82,268.29c10.59,0,19.18-9.86,19.18-22.03c0-12.17-8.59-22.03-19.18-22.03
	c-10.59,0-19.18,9.86-19.18,22.03C473.64,258.43,482.23,268.29,492.82,268.29z"/>
<path class="st1" d="M502.78,245.87l-15.29-10.14c-0.06-0.04-0.13-0.06-0.2-0.06c-0.07,0-0.14,0.02-0.2,0.06
	c-0.06,0.04-0.11,0.1-0.15,0.17c-0.04,0.07-0.05,0.15-0.05,0.23v20.28c0,0.08,0.02,0.16,0.05,0.23s0.08,0.13,0.15,0.17
	c0.06,0.04,0.13,0.06,0.2,0.06c0.07,0,0.14-0.02,0.2-0.06l15.29-10.14c0.06-0.04,0.11-0.1,0.14-0.17c0.04-0.07,0.05-0.15,0.05-0.23
	s-0.02-0.16-0.05-0.23C502.89,245.96,502.84,245.91,502.78,245.87l-15.29-10.14c-0.06-0.04-0.13-0.06-0.2-0.06
	c-0.07,0-0.14,0.02-0.2,0.06c-0.06,0.04-0.11,0.1-0.15,0.17c-0.04,0.07-0.05,0.15-0.05,0.23v20.28c0,0.08,0.02,0.16,0.05,0.23
	s0.08,0.13,0.15,0.17c0.06,0.04,0.13,0.06,0.2,0.06c0.07,0,0.14-0.02,0.2-0.06l15.29-10.14c0.06-0.04,0.11-0.1,0.14-0.17
	c0.04-0.07,0.05-0.15,0.05-0.23s-0.02-0.16-0.05-0.23C502.89,245.96,502.84,245.91,502.78,245.87L502.78,245.87z"/>
<path class="st0" d="M467.92,332.89c0.01,2.48-0.83,4.86-2.35,6.62c-1.52,1.76-3.58,2.76-5.74,2.77H103.8
	c-1.07-0.01-2.12-0.25-3.11-0.73c-0.98-0.48-1.88-1.17-2.63-2.04c-0.75-0.87-1.35-1.9-1.75-3.04c-0.4-1.14-0.61-2.35-0.6-3.58V53.55
	c-0.01-2.48,0.83-4.86,2.35-6.62c1.52-1.76,3.58-2.76,5.74-2.77h356.02c1.07,0.01,2.12,0.25,3.11,0.73
	c0.99,0.48,1.88,1.17,2.63,2.04c0.75,0.87,1.35,1.91,1.75,3.04c0.4,1.14,0.61,2.35,0.6,3.58v0V332.89z"/>
<path class="st1" d="M463.72,328.31c0,2.41-0.83,4.72-2.32,6.42c-1.48,1.7-3.49,2.66-5.59,2.66H108.06c-2.1,0-4.11-0.96-5.59-2.66
	c-1.48-1.7-2.32-4.01-2.32-6.42V58.25c0-2.41,0.83-4.72,2.32-6.42c1.48-1.7,3.49-2.66,5.59-2.66h347.77c2.09,0,4.1,0.96,5.58,2.67
	c1.48,1.7,2.31,4.01,2.31,6.42V328.31z"/>
<path class="st0" d="M118.74,60.89H445.5c1.24,0,2.44,0.57,3.32,1.58c0.88,1.01,1.37,2.38,1.37,3.81v252.95
	c0,1.43-0.49,2.8-1.37,3.81c-0.88,1.01-2.07,1.58-3.32,1.58H118.74c-1.24,0-2.44-0.57-3.32-1.58c-0.88-1.01-1.37-2.38-1.37-3.81
	V66.28c0-1.43,0.49-2.8,1.37-3.81C116.3,61.46,117.49,60.89,118.74,60.89z"/>
<path class="st1" d="M122.88,66.96h318.14c1.24,0,2.44,0.57,3.32,1.58s1.37,2.38,1.37,3.81V311.8c0,1.43-0.49,2.8-1.37,3.81
	c-0.88,1.01-2.07,1.58-3.32,1.58H122.88c-1.24,0-2.44-0.57-3.32-1.58c-0.88-1.01-1.38-2.38-1.38-3.81V72.35
	c0-1.43,0.5-2.8,1.38-3.81C120.44,67.53,121.63,66.96,122.88,66.96L122.88,66.96z"/>
<path class="st2" d="M347.5,233.3c-1.25,0-2.49-0.3-3.63-0.89c-0.27-0.14-0.52-0.3-0.76-0.49l-23.12-18.69
	c-1.17-0.95-2.13-2.21-2.79-3.67s-1.01-3.09-1.01-4.73v-25.5c0-1.65,0.34-3.27,1.01-4.73s1.62-2.72,2.79-3.67l23.12-18.69
	c0.24-0.19,0.49-0.36,0.76-0.49c1.36-0.7,2.85-0.99,4.34-0.85c1.49,0.13,2.92,0.69,4.17,1.63c1.25,0.93,2.28,2.21,2.99,3.71
	c0.71,1.5,1.08,3.19,1.08,4.9v61.9c0,2.72-0.94,5.34-2.62,7.27C352.15,232.21,349.87,233.3,347.5,233.3L347.5,233.3z"/>
<path class="st2" d="M295.76,238.31h-64.49c-13.16-0.01-23.82-9.78-23.83-21.84v-48.81c0.01-12.05,10.68-21.82,23.83-21.84h64.65
	c13.06,0.01,23.65,9.71,23.66,21.68v48.96C319.57,228.53,308.91,238.3,295.76,238.31z"/>
<path class="st2" d="M410.63,301.79c10.59,0,19.18-9.86,19.18-22.03c0-12.17-8.59-22.03-19.18-22.03
	c-10.59,0-19.18,9.86-19.18,22.03C391.45,291.93,400.03,301.79,410.63,301.79z"/>
<path class="st1" d="M420.59,279.37l-15.29-10.14c-0.06-0.04-0.13-0.06-0.2-0.06c-0.07,0-0.14,0.02-0.2,0.06
	c-0.06,0.04-0.11,0.1-0.15,0.17c-0.03,0.07-0.05,0.15-0.05,0.23v20.28c0,0.08,0.02,0.16,0.05,0.23c0.04,0.07,0.09,0.13,0.15,0.17
	c0.06,0.04,0.13,0.06,0.2,0.06c0.07,0,0.14-0.02,0.2-0.06l15.29-10.14c0.06-0.04,0.11-0.1,0.15-0.17c0.04-0.07,0.05-0.15,0.05-0.23
	c0-0.08-0.02-0.16-0.05-0.23C420.7,279.47,420.65,279.41,420.59,279.37l-15.29-10.14c-0.06-0.04-0.13-0.06-0.2-0.06
	c-0.07,0-0.14,0.02-0.2,0.06c-0.06,0.04-0.11,0.1-0.15,0.17c-0.03,0.07-0.05,0.15-0.05,0.23v20.28c0,0.08,0.02,0.16,0.05,0.23
	c0.04,0.07,0.09,0.13,0.15,0.17c0.06,0.04,0.13,0.06,0.2,0.06c0.07,0,0.14-0.02,0.2-0.06l15.29-10.14c0.06-0.04,0.11-0.1,0.15-0.17
	c0.04-0.07,0.05-0.15,0.05-0.23c0-0.08-0.02-0.16-0.05-0.23C420.7,279.47,420.65,279.41,420.59,279.37z"/>
<path class="st0" d="M387.32,371.26c0.01,2.48-0.83,4.86-2.35,6.62c-1.52,1.76-3.58,2.76-5.74,2.77H23.2
	c-1.07-0.01-2.12-0.25-3.11-0.73c-0.98-0.47-1.88-1.17-2.63-2.04c-0.75-0.87-1.35-1.91-1.75-3.04c-0.4-1.14-0.61-2.35-0.6-3.58
	V91.92c-0.01-2.48,0.83-4.86,2.35-6.62c1.52-1.76,3.58-2.76,5.74-2.77h356.02c1.07,0.01,2.12,0.25,3.11,0.73
	c0.98,0.48,1.88,1.17,2.63,2.04c0.75,0.87,1.35,1.91,1.75,3.04c0.4,1.14,0.61,2.35,0.6,3.58v0V371.26z"/>
<path class="st1" d="M383.12,366.69c0,2.41-0.83,4.72-2.32,6.42c-1.48,1.7-3.49,2.66-5.59,2.66H27.46c-2.1,0-4.11-0.96-5.59-2.66
	c-1.48-1.7-2.32-4.01-2.32-6.42V96.62c0-2.41,0.83-4.72,2.32-6.42c1.48-1.7,3.49-2.66,5.59-2.66h347.77c2.09,0,4.1,0.96,5.58,2.67
	c1.48,1.7,2.31,4.01,2.31,6.42V366.69z"/>
<path class="st0" d="M38.14,99.26H364.9c1.24,0,2.44,0.57,3.32,1.58c0.88,1.01,1.38,2.38,1.38,3.81V357.6c0,1.43-0.49,2.8-1.38,3.81
	c-0.88,1.01-2.07,1.58-3.32,1.58H38.14c-1.24,0-2.44-0.57-3.32-1.58c-0.88-1.01-1.37-2.38-1.37-3.81V104.66
	c0-1.43,0.49-2.8,1.37-3.81C35.7,99.83,36.89,99.26,38.14,99.26L38.14,99.26z"/>
<path class="st1" d="M42.27,105.33h318.14c0.62,0,1.23,0.14,1.8,0.41c0.57,0.27,1.09,0.67,1.52,1.17c0.44,0.5,0.78,1.09,1.02,1.75
	c0.24,0.65,0.36,1.35,0.36,2.06v239.45c0,0.71-0.12,1.41-0.36,2.06c-0.24,0.65-0.58,1.25-1.02,1.75c-0.44,0.5-0.95,0.9-1.52,1.17
	c-0.57,0.27-1.18,0.41-1.8,0.41H42.27c-1.24,0-2.44-0.57-3.32-1.58s-1.37-2.38-1.37-3.81V110.72c0-1.43,0.49-2.8,1.37-3.81
	C39.84,105.9,41.03,105.33,42.27,105.33L42.27,105.33z"/>
<path class="st3" d="M266.9,271.67c-1.25,0-2.49-0.3-3.63-0.89c-0.27-0.14-0.52-0.3-0.76-0.49l-23.12-18.69
	c-1.17-0.95-2.13-2.21-2.79-3.67c-0.66-1.46-1.01-3.08-1.01-4.73v-25.5c0-1.65,0.35-3.27,1.01-4.73c0.66-1.46,1.62-2.72,2.79-3.67
	l23.12-18.69c0.24-0.19,0.49-0.36,0.76-0.49c1.36-0.7,2.85-0.99,4.34-0.85c1.49,0.14,2.92,0.69,4.17,1.63
	c1.25,0.93,2.28,2.21,2.99,3.71c0.71,1.51,1.08,3.19,1.08,4.9v61.89c0,2.73-0.94,5.34-2.62,7.26
	C271.55,270.59,269.27,271.67,266.9,271.67L266.9,271.67z"/>
<path class="st3" d="M215.16,276.69h-64.49c-13.16-0.01-23.82-9.78-23.83-21.83v-48.81c0.01-12.05,10.68-21.82,23.83-21.83h64.65
	c13.06,0.01,23.65,9.71,23.66,21.68v48.96C238.97,266.9,228.31,276.67,215.16,276.69z"/>
<path class="st2" d="M330.03,340.17c10.59,0,19.18-9.86,19.18-22.03c0-12.17-8.59-22.03-19.18-22.03
	c-10.59,0-19.18,9.86-19.18,22.03C310.85,330.3,319.43,340.17,330.03,340.17z"/>
<path class="st1" d="M339.99,317.74L324.7,307.6c-0.06-0.04-0.13-0.06-0.2-0.06c-0.07,0-0.14,0.02-0.2,0.06
	c-0.06,0.04-0.11,0.1-0.15,0.17c-0.03,0.07-0.05,0.15-0.05,0.23v20.28c0,0.08,0.02,0.16,0.05,0.23c0.04,0.07,0.08,0.13,0.15,0.17
	c0.06,0.04,0.13,0.06,0.2,0.06c0.07,0,0.14-0.02,0.2-0.06l15.29-10.14c0.06-0.04,0.11-0.1,0.14-0.17s0.05-0.15,0.05-0.23
	c0-0.08-0.02-0.16-0.05-0.23S340.05,317.78,339.99,317.74L324.7,307.6c-0.06-0.04-0.13-0.06-0.2-0.06c-0.07,0-0.14,0.02-0.2,0.06
	c-0.06,0.04-0.11,0.1-0.15,0.17c-0.03,0.07-0.05,0.15-0.05,0.23v20.28c0,0.08,0.02,0.16,0.05,0.23c0.04,0.07,0.08,0.13,0.15,0.17
	c0.06,0.04,0.13,0.06,0.2,0.06c0.07,0,0.14-0.02,0.2-0.06l15.29-10.14c0.06-0.04,0.11-0.1,0.14-0.17s0.05-0.15,0.05-0.23
	c0-0.08-0.02-0.16-0.05-0.23S340.05,317.78,339.99,317.74L339.99,317.74z"/>
</svg>
