<?xml version="1.0" encoding="utf-8"?>
<!-- Generator: Adobe Illustrator 25.0.0, SVG Export Plug-In . SVG Version: 6.00 Build 0)  -->
<svg version="1.1" id="Layer_1" xmlns="http://www.w3.org/2000/svg" xmlns:xlink="http://www.w3.org/1999/xlink" x="0px" y="0px"
	 viewBox="0 0 531.63 390.82" style="enable-background:new 0 0 531.63 390.82;" xml:space="preserve">
<style type="text/css">
	.st0{fill:#B7B7B7;}
	.st1{fill:#E6E6E6;}
	.st2{fill:#CDCCCC;}
	.st3{fill:#EE7271;}
	.st4{opacity:0.2;fill:#010202;enable-background:new    ;}
	.st5{fill:#2F2F41;}
	.st6{fill:#A1616A;}
	.st7{fill:#575A8A;}
	.st8{fill:#403D56;}
	.st9{fill:#FFFFFF;}
	.st10{fill:#B3B3B3;}
	.st11{fill:#D0CCE0;}
</style>
<path class="st0" d="M517.28,146.51H304.59v6.24h212.69V146.51z"/>
<path class="st1" d="M376.06,94.31h-53.88v53.91h53.88V94.31z"/>
<path class="st2" d="M365.28,105.09h-32.33v32.35h32.33V105.09z"/>
<path class="st1" d="M456.6,94.31h-13.61v53.91h13.61V94.31z"/>
<path class="st2" d="M456.6,102.82h-13.61v6.24h13.61V102.82z"/>
<path class="st2" d="M456.6,130.06h-13.61v6.24h13.61V130.06z"/>
<path class="st1" d="M435.61,94.31H422v53.91h13.61V94.31z"/>
<path class="st2" d="M435.61,102.82H422v6.24h13.61V102.82z"/>
<path class="st2" d="M435.61,130.06H422v6.24h13.61V130.06z"/>
<path class="st1" d="M468.33,94.08l-12.2,6.04l23.91,48.31l12.2-6.04L468.33,94.08z"/>
<path class="st2" d="M472.1,101.71l-12.2,6.04l2.77,5.59l12.2-6.04L472.1,101.71z"/>
<path class="st2" d="M484.18,126.12l-12.2,6.04l2.77,5.59l12.2-6.04L484.18,126.12z"/>
<path class="st1" d="M342.31,115.95l6.86,11.88l6.85,11.88h-13.71H328.6l6.85-11.88L342.31,115.95z"/>
<path class="st1" d="M354.22,118.22l6.86,11.88l6.86,11.88h-13.71h-13.71l6.85-11.88L354.22,118.22z"/>
<path class="st1" d="M359.04,114.74c2.19,0,3.97-1.78,3.97-3.97s-1.78-3.97-3.97-3.97c-2.19,0-3.97,1.78-3.97,3.97
	S356.85,114.74,359.04,114.74z"/>
<path class="st0" d="M304.6,67.07h212.69v-6.24H304.6V67.07z"/>
<path class="st1" d="M445.82,62.53h53.88V8.62h-53.88V62.53z"/>
<path class="st2" d="M456.6,51.75h32.33V19.4H456.6V51.75z"/>
<path class="st1" d="M365.28,62.53h13.61V8.62h-13.61V62.53z"/>
<path class="st2" d="M365.28,23.38h13.61v-6.24h-13.61V23.38z"/>
<path class="st2" d="M365.28,50.61h13.61v-6.24h-13.61V50.61z"/>
<path class="st1" d="M386.27,62.53h13.61V8.62h-13.61V62.53z"/>
<path class="st2" d="M386.27,23.38h13.61v-6.24h-13.61V23.38z"/>
<path class="st2" d="M386.27,50.61h13.61v-6.24h-13.61V50.61z"/>
<path class="st1" d="M329.65,56.71l12.2,6.04l23.91-48.31l-12.2-6.04L329.65,56.71z"/>
<path class="st2" d="M347.01,21.62l12.2,6.04l2.77-5.59l-12.2-6.04L347.01,21.62z"/>
<path class="st2" d="M334.93,46.03l12.2,6.04l2.77-5.59l-12.2-6.04L334.93,46.03z"/>
<path class="st1" d="M479.57,30.26l-6.86,11.88l-6.85,11.88h13.71h13.71l-6.86-11.88L479.57,30.26z"/>
<path class="st1" d="M467.66,32.53l-6.86,11.88l-6.86,11.88h13.71h13.71l-6.86-11.88L467.66,32.53z"/>
<path class="st1" d="M462.84,29.05c2.19,0,3.97-1.78,3.97-3.97s-1.78-3.97-3.97-3.97c-2.19,0-3.97,1.78-3.97,3.97
	S460.65,29.05,462.84,29.05z"/>
<path class="st0" d="M304.6,238.44h212.69v-6.24H304.6V238.44z"/>
<path class="st1" d="M445.82,233.9h53.88v-53.91h-53.88V233.9z"/>
<path class="st2" d="M456.6,223.12h32.33v-32.35H456.6V223.12z"/>
<path class="st1" d="M365.28,233.9h13.61v-53.91h-13.61V233.9z"/>
<path class="st2" d="M365.28,194.75h13.61v-6.24h-13.61V194.75z"/>
<path class="st2" d="M365.28,221.99h13.61v-6.24h-13.61V221.99z"/>
<path class="st1" d="M386.27,233.9h13.61v-53.91h-13.61V233.9z"/>
<path class="st2" d="M386.27,194.75h13.61v-6.24h-13.61V194.75z"/>
<path class="st2" d="M386.27,221.99h13.61v-6.24h-13.61V221.99z"/>
<path class="st1" d="M329.65,228.08l12.2,6.04l23.91-48.31l-12.2-6.04L329.65,228.08z"/>
<path class="st2" d="M347.01,192.99l12.2,6.04l2.77-5.59l-12.2-6.04L347.01,192.99z"/>
<path class="st2" d="M334.93,217.4l12.2,6.04l2.77-5.59l-12.2-6.04L334.93,217.4z"/>
<path class="st1" d="M479.57,201.63l-6.86,11.88l-6.85,11.88h13.71h13.71l-6.86-11.88L479.57,201.63z"/>
<path class="st1" d="M467.66,203.9l-6.86,11.88l-6.86,11.88h13.71h13.71l-6.86-11.88L467.66,203.9z"/>
<path class="st1" d="M462.84,200.42c2.19,0,3.97-1.78,3.97-3.97s-1.78-3.97-3.97-3.97c-2.19,0-3.97,1.78-3.97,3.97
	S460.65,200.42,462.84,200.42z"/>
<path class="st0" d="M261.84,381.4c138.37,0,250.55-7.97,250.55-17.8c0-9.83-112.17-17.8-250.55-17.8
	c-138.38,0-250.55,7.97-250.55,17.8C11.29,373.43,123.46,381.4,261.84,381.4z"/>
<path class="st3" d="M457.58,373.56c-40.85-7.27-85.53-6.06-132.39,0c21.36-18.04,39.79-36.08,18.43-54.12
	c41.66,8.6,47.5,7.73,93.85,0C426.72,337.48,446.83,355.52,457.58,373.56z"/>
<path class="st4" d="M457.58,373.56c-40.85-7.27-85.53-6.06-132.39,0c21.36-18.04,39.79-36.08,18.43-54.12
	c41.66,8.6,47.5,7.73,93.85,0C426.72,337.48,446.83,355.52,457.58,373.56z"/>
<path class="st3" d="M447.61,365.87c-34.7-5.81-72.65-4.84-112.46,0c18.14-14.4,33.8-28.8,15.66-43.2c35.39,6.86,40.35,6.17,79.72,0
	C421.4,337.07,438.48,351.47,447.61,365.87z"/>
<path class="st5" d="M434.39,342.66c10.21,0,18.49-8.28,18.49-18.5c0-10.22-8.28-18.5-18.49-18.5c-10.21,0-18.49,8.28-18.49,18.5
	C415.9,334.38,424.18,342.66,434.39,342.66z"/>
<path class="st6" d="M350.45,302.7l12.81,2.14l6.41,18.52l-18.51,11.39l-21.36-32.05h19.93H350.45z"/>
<path class="st6" d="M386.75,331.19c16.51,0,29.9-13.39,29.9-29.91c0-16.52-13.38-29.91-29.9-29.91
	c-16.51,0-29.89,13.39-29.89,29.91C356.86,317.8,370.24,331.19,386.75,331.19z"/>
<path class="st5" d="M221.62,192.32c0,0-72.6,7.83-85.41,6.41c-12.81-1.42-18.51-2.85-18.51-2.85s-8.54,11.39-4.27,16.38
	c2.39,2.87,5.29,5.29,8.54,7.12c0,0,7.83-2.14,13.52,0c5.69,2.14,63.35,11.39,73.31,2.85S221.62,192.32,221.62,192.32z"/>
<path class="st5" d="M226.6,351.13c0,0-47.69-13.53-56.23-73.35v-5.7c0,0-9.44,16.56-12.81,19.94
	c-3.92,3.92-17.79,39.17-17.08,42.73c0.71,3.56,0,4.98,0,4.98l-20.64-2.14v-6.41c0,0,11.03-33.11,11.74-40.95
	c0.71-7.83,27.4-62.31,27.4-62.31s9.96-20.65,27.05,0c17.08,20.65,18.51,34.9,18.51,34.9l22.07,42.73V351.13z"/>
<path class="st5" d="M119.83,193.75l-22.78-7.83c0,0-21.35-15.67-16.37,0c4.98,15.67,27.76,49.85,34.17,46.29
	c6.41-3.56,14.11-12.4,12.39-13.68C125.53,217.25,114.14,207.99,119.83,193.75z"/>
<path class="st5" d="M122.59,326.99l-18.39,8.98c0,0-22.24,3.42-9.83,9.84c12.4,6.42,46.61,13.26,48.32,7.27
	c1.71-5.99,1.03-15.93-0.77-15.67C140.12,337.68,127.72,338.97,122.59,326.99z"/>
<path class="st7" d="M217.35,304.13c0,0-9.25,39.88,6.41,48.43c15.66,8.55,125.27,9.97,133.82-5.7c8.54-15.67,4.27-15.67,4.27-15.67
	l-22.78-25.64l18.51-1.42c0,0,0-5.7-6.41-6.41s-26.34-7.83-43.42-2.85c-17.08,4.99-27.05-9.97-27.05-9.97L217.35,304.13z"/>
<path class="st8" d="M205.25,179.5l-12.1,66.23l83.28-9.97l14.95-59.82L205.25,179.5z"/>
<path class="st9" d="M207.74,182l-9.96,59.11l75.81-8.9l14.59-53.77L207.74,182z"/>
<path class="st10" d="M195.99,246.44l-2.85-0.71l-1.42,2.85l22.78,63.38l2.14-0.82l0.71-4.17L195.99,246.44z"/>
<path class="st11" d="M193.15,245.02l22.78,66.23l86.13-12.82l-25.62-62.67L193.15,245.02z"/>
<path class="st8" d="M204.54,242.88v3.56l63.35-7.12l-0.71-3.56L204.54,242.88z"/>
<path class="st8" d="M205.96,250.01l9.97,27.77l64.77-7.83l-11.39-26.35L205.96,250.01z"/>
<path class="st6" d="M287.1,289.17l-2.14-5.7c0,0-16.37-28.49-24.91-22.79c-8.54,5.7,17.8,33.47,17.8,33.47h8.54L287.1,289.17z"/>
<path class="st6" d="M233.01,293.45l-2.13-8.55c0,0-5.7-26.35,4.27-24.93c9.97,1.42,12.81,26.35,12.81,26.35l-0.71,5.7
	L233.01,293.45z"/>
<path class="st7" d="M250.09,289.89c0,0-18.51-2.85-19.22,1.42c-0.71,4.27-4.27,68.37,13.52,70.5
	c17.79,2.14,106.06,11.39,96.8-10.68c-9.25-22.08-23.49-19.23-23.49-19.23l-60.5,6.41L250.09,289.89z"/>
<path class="st7" d="M305.97,298.08L287.1,284.9l-12.46,9.62l15.66,17.09L305.97,298.08z"/>
<path class="st4" d="M255.43,310.89l2.85,27.06l49.11-2.85l-42.71-0.71L255.43,310.89z"/>
<path class="st5" d="M401.51,342.32c19.66,0,35.59-15.94,35.59-35.61c0-19.67-15.93-35.61-35.59-35.61
	c-19.65,0-35.59,15.94-35.59,35.61C365.92,326.38,381.86,342.32,401.51,342.32z"/>
<path class="st3" d="M218.42,202.65l44.13-1.54l4.27-16.27l-45.55,1.38L218.42,202.65z"/>
<path class="st1" d="M207.03,211.91l66.91-2.14l0.71-2.85l-66.91,2.36L207.03,211.91z"/>
<path class="st1" d="M205.6,219.03l66.91-2.14l0.71-2.85l-66.91,2.36L205.6,219.03z"/>
<path class="st1" d="M204.89,224.72l66.91-2.14l0.71-2.85l-66.91,2.36L204.89,224.72z"/>
</svg>
