<?xml version="1.0" encoding="utf-8"?>
<!-- Generator: Adobe Illustrator 25.0.0, SVG Export Plug-In . SVG Version: 6.00 Build 0)  -->
<svg version="1.1" id="Layer_1" xmlns="http://www.w3.org/2000/svg" xmlns:xlink="http://www.w3.org/1999/xlink" x="0px" y="0px"
	 viewBox="0 0 576 548.89" style="enable-background:new 0 0 576 548.89;" xml:space="preserve">
<style type="text/css">
	.st0{clip-path:url(#SVGID_2_);}
	.st1{fill:#B7B7B7;}
	.st2{fill:#F2F2F2;}
	.st3{fill:#FFFFFF;}
	.st4{fill:#EE7271;}
	.st5{opacity:0.2;fill:#010202;enable-background:new    ;}
	.st6{fill:#403D56;}
	.st7{fill:#CDCCCC;}
	.st8{fill:#E6E6E6;}
	.st9{fill:#F6B5B7;}
	.st10{fill:#2F2F41;}
</style>
<g>
	<defs>
		<rect id="SVGID_1_" y="10.89" width="576" height="538"/>
	</defs>
	<clipPath id="SVGID_2_">
		<use xlink:href="#SVGID_1_"  style="overflow:visible;"/>
	</clipPath>
	<g class="st0">
		<path class="st1" d="M132.13,86.55c8,0,14.49-6.48,14.49-14.47s-6.49-14.47-14.49-14.47s-14.49,6.48-14.49,14.47
			S124.13,86.55,132.13,86.55z"/>
		<path class="st2" d="M532.46,422.48l25.84,4.03c8.75-10.58,14.78-23.12,17.57-36.56c-18.9,15.45-47.63,7.24-70.54,15.67
			c-7.13,2.68-13.55,6.94-18.81,12.44c-5.26,5.5-9.21,12.12-11.55,19.35l-12.63,13.57c11.43,4.52,23.71,6.51,35.98,5.84
			c12.28-0.67,24.26-4,35.12-9.74c6.06-3.28,11.69-7.32,16.74-12C541.14,429.39,532.46,422.48,532.46,422.48z"/>
		<path class="st2" d="M523.28,381.21l24.93-7.9c3.11-13.36,2.9-27.28-0.6-40.54c-10.01,22.24-39.4,27.69-56.14,45.44
			c-5.18,5.58-9.03,12.25-11.28,19.51s-2.83,14.94-1.7,22.47l-5.24,17.77c12.25-1.05,24.13-4.73,34.81-10.8
			c10.69-6.07,19.93-14.38,27.09-24.37c3.96-5.64,7.2-11.75,9.62-18.2C534.14,383.53,523.28,381.21,523.28,381.21z"/>
		<path class="st1" d="M576,459.21c0,0.13-0.03,0.27-0.08,0.39c-0.05,0.12-0.13,0.24-0.22,0.33c-0.09,0.09-0.21,0.17-0.33,0.22
			c-0.12,0.05-0.26,0.08-0.39,0.08H1.01c-0.27,0-0.53-0.11-0.72-0.3S0,459.48,0,459.21c0-0.27,0.11-0.53,0.3-0.72s0.45-0.3,0.72-0.3
			h573.97c0.13,0,0.27,0.03,0.39,0.08c0.12,0.05,0.23,0.12,0.33,0.22c0.09,0.09,0.17,0.21,0.22,0.33
			C575.97,458.94,576,459.07,576,459.21L576,459.21z"/>
		<path class="st1" d="M237.84,416.02c101.23,0,183.29-81.95,183.29-183.04S339.07,49.94,237.84,49.94
			c-101.23,0-183.28,81.95-183.28,183.04S136.62,416.02,237.84,416.02z"/>
		<path class="st3" d="M395.55,232.98c0.02,24.58-5.73,48.81-16.78,70.77c-11.06,21.96-27.11,41.02-46.87,55.66
			c-1.32,0.99-2.67,1.95-4.02,2.89c-26.43,18.35-57.85,28.18-90.03,28.18c-32.19,0-63.6-9.83-90.03-28.18
			c-1.36-0.94-2.7-1.9-4.02-2.89c-19.75-14.65-35.79-33.72-46.85-55.67c-11.05-21.95-16.81-46.19-16.81-70.76s5.76-48.8,16.81-70.76
			c11.05-21.95,27.1-41.02,46.85-55.68c1.32-0.99,2.67-1.95,4.02-2.89c26.43-18.35,57.84-28.18,90.03-28.18
			c32.19,0,63.6,9.83,90.03,28.18c1.36,0.94,2.7,1.9,4.02,2.89c19.76,14.64,35.82,33.71,46.87,55.66
			C389.82,184.17,395.57,208.4,395.55,232.98L395.55,232.98z"/>
		<path class="st4" d="M237.84,376.86c79.57,0,144.07-64.42,144.07-143.88c0-79.46-64.5-143.88-144.07-143.88
			S93.77,153.52,93.77,232.98C93.77,312.44,158.27,376.86,237.84,376.86z"/>
		<path class="st5" d="M238.22,89.51c-2.18,0-4.35,0.06-6.51,0.15c36.41,3.2,70.25,20.09,94.65,47.27
			c24.4,27.18,37.55,62.6,36.77,99.1c-0.78,36.5-15.41,71.33-40.95,97.45c-25.54,26.12-60.06,41.57-96.57,43.22
			c4.16,0.36,8.36,0.55,12.61,0.55c38.21,0,74.85-15.16,101.87-42.14c27.02-26.98,42.2-63.58,42.2-101.74s-15.18-74.75-42.2-101.74
			C313.07,104.66,276.43,89.51,238.22,89.51L238.22,89.51z"/>
		<path class="st3" d="M238.27,78.89c-1.24,0-2.43,0.5-3.31,1.37c-0.88,0.88-1.37,2.07-1.38,3.31V104c0,1.24,0.49,2.43,1.37,3.31
			c0.88,0.88,2.07,1.37,3.32,1.37c1.24,0,2.44-0.49,3.32-1.37c0.88-0.88,1.37-2.07,1.37-3.31V83.57c0-1.24-0.5-2.43-1.38-3.31
			C240.7,79.38,239.51,78.89,238.27,78.89L238.27,78.89z"/>
		<path class="st3" d="M331.9,106.55c-1.32-0.99-2.67-1.95-4.02-2.89c-0.81-0.05-1.63,0.11-2.36,0.46c-0.73,0.36-1.36,0.9-1.82,1.57
			l-11.52,16.88c-0.7,1.03-0.96,2.29-0.73,3.51c0.23,1.22,0.94,2.3,1.97,3c1.03,0.7,2.29,0.96,3.51,0.73c1.22-0.23,2.3-0.94,3-1.96
			l11.52-16.88c0.44-0.64,0.71-1.38,0.79-2.15C332.31,108.04,332.2,107.26,331.9,106.55L331.9,106.55z"/>
		<path class="st3" d="M384.22,183.53c-0.23-0.57-0.57-1.09-1.01-1.52c-0.43-0.44-0.95-0.79-1.51-1.02
			c-0.57-0.24-1.18-0.36-1.79-0.37c-0.61,0-1.23,0.11-1.8,0.35l-18.96,7.69c-1.15,0.47-2.07,1.37-2.55,2.52
			c-0.48,1.14-0.49,2.43-0.02,3.58c0.47,1.15,1.37,2.07,2.52,2.55c1.14,0.48,2.43,0.49,3.59,0.03l18.96-7.69
			c1.15-0.47,2.07-1.38,2.55-2.52C384.68,185.96,384.69,184.68,384.22,183.53z"/>
		<path class="st3" d="M163.51,122.58l-11.52-16.88c-0.46-0.67-1.09-1.21-1.82-1.57c-0.73-0.36-1.55-0.52-2.36-0.46
			c-1.36,0.94-2.7,1.9-4.02,2.89c-0.3,0.72-0.41,1.49-0.34,2.27c0.08,0.77,0.35,1.51,0.79,2.15l11.52,16.88
			c0.7,1.03,1.78,1.73,3,1.96c1.22,0.23,2.49-0.03,3.51-0.73c1.03-0.7,1.74-1.78,1.97-3S164.21,123.6,163.51,122.58L163.51,122.58z"
			/>
		<path class="st3" d="M116.53,188.64l-18.96-7.69c-1.15-0.47-2.44-0.46-3.59,0.03c-1.15,0.48-2.05,1.4-2.52,2.55
			c-0.47,1.15-0.46,2.44,0.02,3.58c0.48,1.14,1.4,2.05,2.55,2.52l18.96,7.69c1.15,0.47,2.44,0.46,3.59-0.03
			c1.14-0.48,2.05-1.4,2.52-2.55c0.47-1.15,0.46-2.44-0.02-3.58C118.59,190.02,117.68,189.11,116.53,188.64L116.53,188.64z"/>
		<path class="st3" d="M238.27,357.27c-1.24,0-2.43,0.5-3.31,1.37c-0.88,0.88-1.37,2.07-1.38,3.31v20.43c0,1.24,0.49,2.43,1.37,3.31
			c0.88,0.88,2.07,1.37,3.32,1.37c1.24,0,2.44-0.49,3.32-1.37c0.88-0.88,1.37-2.07,1.37-3.31v-20.43c0-1.24-0.5-2.43-1.38-3.31
			S239.51,357.28,238.27,357.27L238.27,357.27z"/>
		<path class="st3" d="M331.45,354.99l-11.52-16.88c-0.35-0.51-0.79-0.94-1.3-1.28c-0.51-0.34-1.09-0.57-1.7-0.68
			c-0.61-0.11-1.23-0.11-1.83,0.02c-0.6,0.13-1.17,0.37-1.68,0.71c-0.51,0.35-0.94,0.79-1.28,1.3c-0.34,0.51-0.57,1.09-0.68,1.69
			c-0.11,0.6-0.11,1.22,0.02,1.83c0.12,0.6,0.37,1.17,0.71,1.68l11.52,16.88c0.46,0.67,1.09,1.21,1.82,1.57
			c0.73,0.36,1.54,0.52,2.36,0.46c1.36-0.94,2.7-1.9,4.02-2.89c0.3-0.72,0.42-1.49,0.34-2.27
			C332.15,356.37,331.88,355.63,331.45,354.99z"/>
		<path class="st3" d="M381.65,276.33l-18.96-7.69c-1.15-0.47-2.44-0.46-3.59,0.02c-1.15,0.48-2.05,1.4-2.52,2.55
			c-0.47,1.15-0.46,2.44,0.02,3.58c0.48,1.14,1.4,2.05,2.55,2.52l18.96,7.69c1.15,0.47,2.44,0.46,3.59-0.03
			c1.14-0.48,2.05-1.4,2.52-2.55c0.47-1.15,0.46-2.44-0.02-3.58C383.72,277.7,382.8,276.8,381.65,276.33L381.65,276.33z"/>
		<path class="st3" d="M162.27,336.88c-1.03-0.7-2.29-0.96-3.51-0.73c-1.22,0.23-2.3,0.94-3,1.96l-11.52,16.88
			c-0.44,0.64-0.71,1.38-0.79,2.15c-0.08,0.77,0.04,1.55,0.34,2.27c1.32,0.99,2.67,1.95,4.02,2.89c0.81,0.05,1.63-0.11,2.36-0.46
			c0.73-0.36,1.36-0.9,1.82-1.57l11.52-16.88c0.35-0.51,0.59-1.08,0.71-1.68c0.12-0.6,0.13-1.22,0.02-1.83s-0.35-1.18-0.68-1.69
			C163.21,337.67,162.78,337.22,162.27,336.88L162.27,336.88z"/>
		<path class="st3" d="M119.1,271.21c-0.23-0.57-0.57-1.09-1-1.52c-0.43-0.44-0.95-0.79-1.51-1.02c-0.57-0.24-1.18-0.36-1.79-0.37
			s-1.22,0.11-1.79,0.35l-18.96,7.69c-1.15,0.47-2.07,1.37-2.55,2.52c-0.48,1.14-0.49,2.43-0.02,3.58c0.47,1.15,1.37,2.07,2.52,2.55
			c1.14,0.48,2.43,0.49,3.59,0.03l18.96-7.69c1.15-0.47,2.07-1.38,2.55-2.52C119.56,273.65,119.57,272.36,119.1,271.21L119.1,271.21
			z"/>
		<path class="st6" d="M244.35,230.66c0.43,2.56-0.17,5.19-1.67,7.3c-1.5,2.12-3.79,3.55-6.35,3.99l-83.2,14.13
			c-1.27,0.22-2.57,0.18-3.82-0.11c-1.26-0.29-2.44-0.82-3.49-1.56c-1.05-0.74-1.94-1.69-2.63-2.78c-0.68-1.09-1.15-2.3-1.36-3.57
			c-0.22-1.27-0.18-2.56,0.11-3.82c0.29-1.25,0.82-2.44,1.56-3.49c0.74-1.05,1.69-1.94,2.78-2.62c1.09-0.68,2.3-1.15,3.57-1.36
			l83.2-14.13c2.56-0.43,5.19,0.17,7.31,1.67C242.48,225.82,243.91,228.1,244.35,230.66L244.35,230.66z"/>
		<path class="st6" d="M331.92,322.71c-1.2,1.2-2.82,1.88-4.51,1.89c-1.7,0.01-3.32-0.66-4.53-1.85L233.31,234
			c-1.2-1.19-1.88-2.81-1.89-4.51c-0.01-1.69,0.66-3.32,1.86-4.52c1.19-1.2,2.82-1.88,4.51-1.89c1.69-0.01,3.32,0.66,4.53,1.85
			l89.57,88.74c1.2,1.19,1.88,2.81,1.89,4.51C333.78,319.88,333.11,321.51,331.92,322.71L331.92,322.71z"/>
		<path class="st7" d="M237.84,244.05c6.12,0,11.08-4.95,11.08-11.07c0-6.11-4.96-11.07-11.08-11.07s-11.08,4.96-11.08,11.07
			C226.76,239.09,231.72,244.05,237.84,244.05z"/>
		<path class="st1" d="M161.51,41.07C144.5,67.78,118.54,85.5,86.53,97.15c-0.63,0.47-1.35,0.82-2.12,1.01
			c-0.77,0.2-1.56,0.24-2.34,0.13c-0.78-0.11-1.53-0.38-2.21-0.78c-0.68-0.4-1.27-0.93-1.75-1.57l0,0
			c-17.39-23.18-13.46-56.32,9.49-74.03c5.55-4.28,11.89-7.41,18.66-9.22c6.77-1.81,13.83-2.25,20.78-1.31
			c6.94,0.94,13.63,3.25,19.68,6.79c6.04,3.54,11.32,8.25,15.53,13.85l0.48,0.64c0.47,0.63,0.82,1.35,1.01,2.12
			c0.19,0.76,0.24,1.56,0.13,2.34s-0.38,1.53-0.78,2.21C162.67,40,162.14,40.6,161.51,41.07L161.51,41.07z"/>
		<path class="st1" d="M313.45,32.02c4.21-5.6,9.48-10.3,15.53-13.85c6.04-3.54,12.73-5.85,19.67-6.79s14.01-0.49,20.78,1.31
			c6.77,1.81,13.11,4.94,18.66,9.22c22.95,17.72,26.87,50.85,9.49,74.03c-0.47,0.63-1.07,1.16-1.75,1.57
			c-0.68,0.4-1.43,0.67-2.21,0.78c-0.78,0.11-1.58,0.07-2.34-0.13c-0.77-0.2-1.49-0.54-2.12-1.01
			c-29.71-11.36-54.08-31.02-74.98-56.08c-1.28-0.96-2.12-2.38-2.35-3.96c-0.23-1.58,0.18-3.18,1.14-4.46L313.45,32.02z"/>
		<path class="st8" d="M305.99,391.56c-1.08,0.61-1.88,1.62-2.22,2.82c-0.34,1.19-0.19,2.47,0.42,3.56l27.06,48.29
			c0.61,1.08,1.62,1.88,2.82,2.22c1.2,0.34,2.48,0.19,3.56-0.42c1.08-0.61,1.88-1.62,2.22-2.81c0.34-1.2,0.19-2.48-0.42-3.56
			l-27.06-48.29c-0.61-1.08-1.62-1.88-2.82-2.22C308.36,390.8,307.08,390.95,305.99,391.56L305.99,391.56z"/>
		<path class="st8" d="M163.31,393.36l-27.06,48.29c-0.61,1.08-0.76,2.36-0.42,3.56c0.34,1.2,1.14,2.21,2.22,2.81
			c1.09,0.61,2.37,0.76,3.56,0.42c1.2-0.34,2.21-1.14,2.82-2.22l27.06-48.29c0.3-0.54,0.49-1.13,0.57-1.74
			c0.07-0.61,0.02-1.23-0.14-1.82c-0.17-0.59-0.45-1.15-0.83-1.63c-0.38-0.48-0.85-0.89-1.39-1.19c-0.54-0.3-1.13-0.49-1.74-0.56
			c-0.61-0.07-1.23-0.02-1.82,0.14c-0.59,0.17-1.15,0.45-1.63,0.83C164.01,392.35,163.61,392.82,163.31,393.36L163.31,393.36z"/>
		<path class="st1" d="M336.73,458.58c8,0,14.49-6.48,14.49-14.47c0-7.99-6.49-14.47-14.49-14.47c-8,0-14.49,6.48-14.49,14.47
			C322.24,452.1,328.73,458.58,336.73,458.58z"/>
		<path class="st1" d="M346.96,88.25c8,0,14.49-6.48,14.49-14.47c0-7.99-6.49-14.47-14.49-14.47s-14.49,6.48-14.49,14.47
			C332.47,81.77,338.96,88.25,346.96,88.25z"/>
		<path class="st8" d="M236.99,54.2c8,0,14.49-6.48,14.49-14.47c0-7.99-6.49-14.47-14.49-14.47c-8,0-14.49,6.48-14.49,14.47
			C222.5,47.72,228.99,54.2,236.99,54.2z"/>
		<path class="st1" d="M141.51,458.58c8,0,14.49-6.48,14.49-14.47c0-7.99-6.49-14.47-14.49-14.47c-8,0-14.49,6.48-14.49,14.47
			C127.02,452.1,133.51,458.58,141.51,458.58z"/>
		<path class="st9" d="M325.36,314.57c0.57,0.89,1.33,1.65,2.23,2.22s1.91,0.93,2.96,1.07c1.05,0.14,2.12,0.04,3.13-0.28
			c1.01-0.32,1.94-0.86,2.72-1.58l22.74,12.17l-1.22-13.33l-21.41-9.51c-1.3-1.23-3-1.94-4.78-2c-1.79-0.06-3.53,0.54-4.91,1.68
			c-1.38,1.14-2.28,2.74-2.55,4.51C324,311.27,324.39,313.07,325.36,314.57L325.36,314.57z"/>
		<path class="st6" d="M341.93,319.23l8.91-12.29l42.93,20.27l53.42-10.01c2.64-0.49,5.36-0.4,7.96,0.27
			c2.6,0.67,5.02,1.91,7.09,3.62c2.07,1.71,3.74,3.86,4.88,6.28c1.14,2.43,1.74,5.08,1.75,7.76l0,0c0,4.85-1.92,9.5-5.34,12.93
			c-3.42,3.43-8.07,5.37-12.93,5.38l-61.22,0.11L341.93,319.23z"/>
		<path class="st9" d="M328.21,531.4l-9.02-4.31l12.39-37.64l13.31,6.36L328.21,531.4z"/>
		<path class="st9" d="M388.65,525.33c-0.66,0.41-1.31,0.81-1.97,1.22c-1.32,0.81-2.65,1.6-3.98,2.38
			c-0.67,0.39-1.34,0.78-2.01,1.17v0.02l-0.04,0.01l-0.01,0.01l-1.02,0.25l-1.46-3.86l-0.68-1.78l-0.95-2.52l-1.75-4.61l-9.21-24.27
			l14.31-3.52l0.54,2.19h0.01l0.27,1.09l5,20.25l1.02,4.14l0.03,0.13l0.62,2.47l0.53,2.14l0.59,2.4L388.65,525.33z"/>
		<path class="st10" d="M474.03,440.09c-0.91,1.45-1.84,2.9-2.77,4.34c-1.74,2.67-3.52,5.3-5.35,7.9c0,0.01-0.01,0.01-0.01,0.01
			c-1.07,0.99-2.24,1.85-3.51,2.56c-0.05,0.04-0.11,0.07-0.17,0.1c-0.93,0.51-1.92,0.91-2.95,1.18c-0.37,0.09-0.75,0.19-1.12,0.28
			c-1.34,0.32-2.66,0.59-3.98,0.83c-2.34,0.42-4.66,0.71-6.97,0.9c-0.19,0.02-0.37,0.03-0.56,0.05c-9.48,0.69-18.7-0.42-28.33-2.26
			c-4.76-0.9-9.61-1.98-14.64-3.1c-1.64-0.37-3.29-0.73-4.96-1.1c-0.13-0.03-0.26-0.06-0.39-0.08c-2.38-0.52-4.81-1.04-7.29-1.55
			c-3.12-0.64-6.35-1.26-9.7-1.85l0.24,4.72c0.2,3.63,0.95,7.2,2.24,10.6c1.43,4.18,2.56,7.49,0.17,14.37l-1.15,3.33
			c0.6,1.65,0.8,3.43,0.6,5.17c-0.2,1.75-0.81,3.42-1.77,4.9l-0.23,0.35l9.61,24.28l0.62,1.58h-4.92l-6.05,0.01h-10.26l-14.8-29.66
			l-0.71-1.42v-0.07l1.53-56.99c0.02-0.5,0.06-1.01,0.13-1.52c0.27-2.28,0.99-4.49,2.13-6.5c1.13-2,2.65-3.76,4.48-5.17
			c1.74-1.36,3.74-2.36,5.88-2.95c2.14-0.58,4.37-0.74,6.56-0.45l5.07,0.65l10.35,1.34l7.29,0.95l0.15,0.02l21.5,2.78l1.54-6.28
			l0.29-0.11l9.05-3.31l31.31-11.46l0.08-0.03l2.06-0.75l0.24,0.4c0.07,0.12,0.15,0.24,0.21,0.36c2.04,3.64,3.69,7.49,4.95,11.47
			c2.11,6.5,3.84,13.12,5.2,19.82c0.06,0.29,0.11,0.56,0.16,0.79l0.02,0.07c0.02,0.11,0.03,0.18,0.04,0.21
			C475.86,432.8,475.35,436.46,474.03,440.09z"/>
		<path class="st10" d="M475.35,419.09c-0.1-0.42-0.23-0.85-0.36-1.27c-1.05-3.16-2.28-6.25-3.67-9.27
			c-1.56-3.44-3.44-7.12-5.67-11.11c-1.08-1.93-2.24-3.94-3.48-6.02c-0.62-1.05-1.27-2.11-1.94-3.2c-0.03-0.05-0.06-0.1-0.09-0.14
			l-0.19-0.32l-30.98,4.14l-11.54,1.54l-0.69,5.74l-0.17,1.42c-0.01,0-0.01,0,0,0.01l-0.46,3.88v0.01l-0.62,5.12l-0.05-0.01
			l-17.12-2.22l-17.64-2.28l-9.48-1.22c-2.2-0.29-4.43-0.13-6.56,0.45c-2.14,0.58-4.14,1.59-5.88,2.95
			c-1.82,1.41-3.34,3.17-4.48,5.17c-1.13,2-1.86,4.21-2.13,6.5c-0.06,0.46-0.1,0.94-0.12,1.41l-8.94,21.16
			c-5.35,12.65-8.76,26.04-10.11,39.71l-6.56,20.93l0.93,0.09l13.89,1.29l3.67,0.34l8.08-11.78c0.92-1.34,1.79-2.73,2.61-4.14
			c1.34-2.31,2.53-4.71,3.57-7.17l17.48-41.54c1.35,0.23,2.69,0.45,4.01,0.66c6.13,0.99,12.01,1.8,17.64,2.43
			c18.33,2.04,34.19,2.2,48.32,0.47c3.97-0.48,7.8-1.12,11.5-1.9c1.36-0.29,2.7-0.59,4.02-0.92c0.31-0.07,0.62-0.15,0.92-0.23
			c2.74-0.7,5.25-2.08,7.32-4.01s3.61-4.34,4.5-7.02C475.98,425.62,476.13,422.28,475.35,419.09L475.35,419.09z"/>
		<path class="st10" d="M331.09,525.26l-9.76-4.67l-1.53-0.73l-2.44,5.99l-17.06,3.75c-0.84,0.18-1.61,0.63-2.18,1.28
			c-0.57,0.65-0.92,1.46-0.99,2.32c-0.07,0.86,0.13,1.72,0.58,2.46c0.45,0.74,1.12,1.31,1.92,1.63l16.67,6.79l5.29-4.76l-1.3,6.38
			l6.28,2.56l6.88-21.87L331.09,525.26z"/>
		<path class="st10" d="M391.04,516.03l0.62,1.57h-0.62V516.03z"/>
		<path class="st10" d="M387.64,517.94l-10.22,3.54l-1.6,0.55l2.48,5.97l-9.48,14.65c-0.47,0.72-0.7,1.58-0.64,2.44
			c0.05,0.86,0.38,1.68,0.93,2.34c0.55,0.66,1.3,1.13,2.14,1.34c0.84,0.21,1.72,0.14,2.52-0.19l16.63-6.89l0.41-7.1l3.57,5.45
			l6.27-2.59l-10.52-20.38L387.64,517.94z"/>
		<path class="st6" d="M472.8,428.67c-0.61,0-1.2-0.15-1.74-0.43l-53.94-28.15l-0.62-2.55l-1.17-8.06l0.02-0.08l5.13-23.62
			c-0.09-0.2-0.29-0.54-0.51-0.91c-2.29-3.88-9.26-15.67,4.04-31.91l23.35-27.19l20.04-0.86l0.23,0.29
			c5.36,6.72,8.97,14.65,10.52,23.1c1.55,8.45,0.98,17.15-1.65,25.33l-2.09,37.64l2.24,7.6c1.31,4.47,1.09,9.24-0.62,13.57
			l0.51,12.31c0.02,0.51-0.06,1.01-0.24,1.48c-0.18,0.47-0.45,0.9-0.8,1.27c-0.35,0.36-0.77,0.66-1.23,0.85
			C473.81,428.57,473.31,428.67,472.8,428.67L472.8,428.67z"/>
		<path class="st9" d="M426.01,459.72c0.91-0.54,1.7-1.27,2.3-2.15c0.6-0.88,1-1.87,1.17-2.92c0.17-1.04,0.11-2.12-0.17-3.14
			c-0.29-1.02-0.79-1.97-1.48-2.77l12.97-22.27l-13.39,0.75l-10.26,21.04c-1.28,1.25-2.05,2.92-2.17,4.71
			c-0.12,1.78,0.41,3.54,1.51,4.95c1.09,1.41,2.67,2.37,4.42,2.7C422.66,460.96,424.48,460.64,426.01,459.72L426.01,459.72z"/>
		<path class="st6" d="M431.24,443.34l-11.98-9.32l21.78-42.14l-8.16-53.67c-0.4-2.65-0.22-5.36,0.55-7.93
			c0.76-2.57,2.08-4.95,3.87-6.95c1.78-2.01,3.99-3.59,6.46-4.65c2.47-1.06,5.14-1.56,7.83-1.47l0,0c4.85,0.17,9.44,2.24,12.75,5.78
			c3.32,3.54,5.09,8.24,4.94,13.09l-2.02,61.11L431.24,443.34z"/>
		<path class="st10" d="M434.49,294.48v-19.81c0-7.04,2.79-13.79,7.77-18.77c4.98-4.98,11.74-7.78,18.79-7.79
			c7.05,0,13.81,2.79,18.8,7.76c4.99,4.97,7.79,11.72,7.8,18.76v0.03c4.68,9.75,1.75,14.38,0,19.81c0,0.94-0.38,1.85-1.05,2.52
			s-1.57,1.04-2.52,1.05h-46.02c-0.95,0-1.85-0.38-2.52-1.05C434.87,296.33,434.5,295.42,434.49,294.48L434.49,294.48z"/>
		<path class="st9" d="M452.36,296.76c10.99,0,19.9-8.89,19.9-19.87c0-10.97-8.91-19.87-19.9-19.87c-10.99,0-19.89,8.89-19.89,19.87
			C432.46,287.86,441.37,296.76,452.36,296.76z"/>
		<path class="st10" d="M473.18,282.1c-0.18-0.03-0.36-0.07-0.54-0.09c-3.1-0.55-6.21-1.09-9.3-1.65l-0.29-7l-3.75,6.27
			c-8.55,2.83-16.55,1.23-24.08-2.3c-2.48-1.18-4.89-2.5-7.21-3.97c0.63-3.87,2.12-7.56,4.36-10.78c2.24-3.22,5.17-5.91,8.59-7.85
			c0.28-0.16,0.56-0.3,0.84-0.45c0,0,0,0,0,0c0,0,0,0,0,0c0,0,0,0,0,0c0,0,0,0,0,0c0.48-0.23,0.98-0.45,1.47-0.65
			c3.86-1.51,8.08-1.89,12.15-1.1c4.07,0.79,7.84,2.71,10.86,5.56C472.37,263.86,475.1,273.42,473.18,282.1z"/>
	</g>
</g>
</svg>
