<?xml version="1.0" encoding="utf-8"?>
<!-- Generator: Adobe Illustrator 25.0.0, SVG Export Plug-In . SVG Version: 6.00 Build 0)  -->
<svg version="1.1" id="Layer_1" xmlns="http://www.w3.org/2000/svg" xmlns:xlink="http://www.w3.org/1999/xlink" x="0px" y="0px"
	 viewBox="0 0 448.98 440.82" style="enable-background:new 0 0 448.98 440.82;" xml:space="preserve">
<style type="text/css">
	.st0{clip-path:url(#SVGID_2_);}
	.st1{fill:#F2F2F2;}
	.st2{fill:#E6E6E6;}
	.st3{fill:#FFFFFF;}
	.st4{fill:#EC6585;}
	.st5{fill:#CDCCCC;}
	.st6{fill:#B7B7B7;}
	.st7{fill:#F6B6B8;}
	.st8{fill:#2F2F41;}
	.st9{fill:#EE7271;}
	.st10{fill:#403D56;}
	.st11{opacity:0.74;fill:#403D56;enable-background:new    ;}
	.st12{opacity:0.74;fill:#EE7271;enable-background:new    ;}
	.st13{opacity:0.74;fill:#EC6585;enable-background:new    ;}
	.st14{fill:#E4E3E3;}
	.st15{opacity:0.21;fill:#010202;enable-background:new    ;}
</style>
<g>
	<defs>
		<rect id="SVGID_1_" x="5.37" y="10.43" width="434" height="422"/>
	</defs>
	<clipPath id="SVGID_2_">
		<use xlink:href="#SVGID_1_"  style="overflow:visible;"/>
	</clipPath>
	<g class="st0">
		<path class="st1" d="M413.68,126.9c-4.06-7.33-8.57-14.41-13.5-21.19c-3.45-4.76-7.1-9.36-10.94-13.8h-0.01
			c-6.95-8.04-14.52-15.53-22.63-22.41c-1.66-1.41-3.34-2.79-5.04-4.14c-15.38-12.24-32.44-22.21-50.65-29.61l0.16,26.62l1.74,303.5
			H161.78l-8.49-302.93l0.63-26.2C79.87,67.91,27.88,141.17,27.88,226.58c-0.01,17.63,2.23,35.19,6.69,52.24
			c1.88,7.21,4.16,14.31,6.82,21.27c0.96,2.52,1.98,5.03,3.04,7.51c0.51,1.21,1.04,2.4,1.58,3.6c0.7,1.56,1.42,3.11,2.17,4.65
			c0.58,1.21,1.17,2.41,1.78,3.6c0.78,1.56,1.59,3.11,2.43,4.65c0.64,1.21,1.31,2.41,1.98,3.6c10.86,19.22,24.73,36.58,41.08,51.41
			c4.66,4.23,9.51,8.24,14.55,12.03c35.65,26.8,79.03,41.29,123.62,41.29s87.97-14.49,123.62-41.29c2.74-2.06,5.43-4.19,8.05-6.38
			c1.75-1.45,3.46-2.93,5.15-4.44c0.45-0.4,0.89-0.8,1.34-1.2c15.08-13.67,28.05-29.5,38.5-46.96c3.84-6.4,7.32-13.01,10.43-19.8
			c0.82-1.79,1.62-3.6,2.39-5.42c3.55-8.35,6.53-16.93,8.93-25.69c0.37-1.35,0.73-2.71,1.07-4.07v-0.01
			c0.06-0.23,0.12-0.48,0.18-0.71c0.36-1.43,0.7-2.88,1.02-4.32v0c1.06-4.65,1.95-9.36,2.68-14.13c0.09-0.61,0.18-1.22,0.27-1.83
			c0.03-0.22,0.07-0.44,0.09-0.66v0c0.52-3.68,0.94-7.39,1.26-11.12c0.5-5.87,0.75-11.8,0.76-17.8
			C439.43,191.71,430.58,157.4,413.68,126.9L413.68,126.9z"/>
		<path class="st2" d="M393.48,350.84c12.18-16.46,16.86-39.65,7.39-57.81c-8.88,20.42-24.7,37.04-44.65,46.92
			c-7.71,3.78-16.68,7.18-20.24,15c-2.22,4.86-1.8,10.6-0.01,15.64c1.79,5.04,4.82,9.52,7.83,13.94l0.16,1.33
			C362.85,378.01,381.3,367.3,393.48,350.84z"/>
		<path class="st3" d="M400.46,293.18c-0.54,16.94-6.41,33.29-16.77,46.7c-2.18,2.93-4.8,5.49-7.78,7.6
			c-2.97,1.96-6.4,3.09-9.95,3.27c-3.31,0.24-6.72,0.1-9.91,1.13c-1.63,0.56-3.12,1.45-4.37,2.62c-1.26,1.17-2.25,2.6-2.92,4.18
			c-1.77,3.9-2.03,8.21-2.14,12.43c-0.12,4.68-0.17,9.55-2.38,13.81c-0.27,0.52,0.55,0.9,0.81,0.39c3.84-7.41,1.35-16.08,3.64-23.86
			c1.07-3.64,3.24-6.97,6.87-8.43c3.17-1.27,6.69-1.13,10.04-1.34c3.47-0.13,6.85-1.1,9.85-2.84c3.07-1.95,5.79-4.41,8.04-7.28
			c5.17-6.37,9.3-13.51,12.25-21.16c3.41-8.72,5.32-17.95,5.62-27.31C401.38,292.52,400.48,292.6,400.46,293.18L400.46,293.18z"/>
		<path class="st3" d="M387.28,335.76c2.49,1.43,5.4,1.93,8.22,1.42c2.82-0.52,5.37-2.02,7.18-4.25c0.37-0.45-0.32-1.04-0.68-0.59
			c-1.69,2.07-4.06,3.48-6.69,3.95c-2.63,0.48-5.34,0-7.65-1.35C387.16,334.65,386.78,335.46,387.28,335.76z"/>
		<path class="st3" d="M367.65,350.86c-1.57-5.65-0.96-11.69,1.72-16.91c0.27-0.52-0.55-0.9-0.82-0.39
			c-2.78,5.44-3.4,11.72-1.75,17.6C366.96,351.72,367.81,351.42,367.65,350.86L367.65,350.86z"/>
		<path class="st3" d="M397.96,311.73c-1.08-0.35-2.05-0.97-2.83-1.79c-0.78-0.82-1.34-1.83-1.64-2.92c-0.15-0.56-1-0.25-0.85,0.3
			c0.33,1.21,0.96,2.32,1.82,3.23c0.86,0.91,1.93,1.6,3.12,2c0.11,0.05,0.23,0.05,0.34,0.01c0.11-0.04,0.2-0.12,0.26-0.23
			c0.05-0.11,0.06-0.23,0.02-0.35C398.15,311.88,398.07,311.79,397.96,311.73L397.96,311.73z"/>
		<path class="st2" d="M333.08,278.58c0.08,0.35,0.17,0.71,0.25,1.07c1.11,4.76,1.82,9.6,2.14,14.48c0.03,0.38,0.06,0.76,0.08,1.13
			c0.65,11.75-0.89,23.53-4.53,34.72c-1.45,4.45-3.25,8.79-5.36,12.97c-2.92,5.77-6.54,11.8-7.36,18.02
			c-0.09,0.65-0.14,1.3-0.16,1.96l24.17,23.02c0.08,0.02,0.16,0.06,0.24,0.08l0.92,0.96c0.12-0.21,0.25-0.43,0.37-0.63
			c0.07-0.12,0.14-0.25,0.21-0.37c0.05-0.08,0.09-0.16,0.14-0.24c0.02-0.03,0.03-0.05,0.04-0.08c0.05-0.07,0.08-0.14,0.12-0.21
			c0.7-1.22,1.39-2.45,2.07-3.68c0-0.01,0-0.01,0-0.02c5.18-9.41,9.61-19.33,12.4-29.61c0.08-0.31,0.17-0.62,0.25-0.94
			c1.23-4.64,2.08-9.38,2.55-14.15c0.24-2.62,0.36-5.25,0.33-7.88c-0.07-6.79-1.2-13.53-3.37-19.97
			c-4.31-12.84-12.68-24.15-24.61-30.18C333.69,278.88,333.39,278.73,333.08,278.58z"/>
		<path class="st3" d="M332.84,278.94c9.76,13.86,14.91,30.44,14.71,47.39c0.02,3.65-0.53,7.28-1.64,10.76
			c-1.19,3.35-3.25,6.33-5.98,8.61c-2.5,2.18-5.31,4.12-7.23,6.88c-0.96,1.42-1.62,3.03-1.91,4.73c-0.3,1.69-0.24,3.43,0.18,5.1
			c0.94,4.18,3.32,7.78,5.77,11.21c2.72,3.81,5.61,7.73,6.41,12.46c0.1,0.57,0.98,0.39,0.88-0.18c-1.39-8.23-8.6-13.65-11.46-21.25
			c-1.33-3.55-1.61-7.52,0.41-10.86c1.77-2.93,4.66-4.93,7.21-7.12c2.69-2.19,4.8-5.01,6.16-8.2c1.28-3.41,1.97-7.01,2.04-10.66
			c0.29-8.2-0.7-16.39-2.95-24.28c-2.52-9.02-6.56-17.54-11.95-25.19C333.17,277.86,332.51,278.47,332.84,278.94L332.84,278.94z"/>
		<path class="st3" d="M347.94,320.88c2.85-0.35,5.48-1.71,7.42-3.82c1.94-2.11,3.07-4.85,3.18-7.72c0.02-0.58-0.88-0.64-0.9-0.06
			c-0.1,2.67-1.15,5.22-2.96,7.18c-1.81,1.96-4.26,3.22-6.92,3.53C347.18,320.06,347.36,320.95,347.94,320.88L347.94,320.88z"/>
		<path class="st3" d="M341.35,344.76c-4.66-3.57-7.8-8.76-8.8-14.54c-0.1-0.57-0.98-0.39-0.88,0.18
			c1.05,6.01,4.34,11.41,9.19,15.11C341.32,345.87,341.81,345.11,341.35,344.76L341.35,344.76z"/>
		<path class="st3" d="M342.01,295.26c-1.07,0.37-2.22,0.46-3.34,0.27c-1.12-0.19-2.17-0.65-3.07-1.34
			c-0.46-0.36-0.95,0.4-0.49,0.76c0.99,0.76,2.16,1.27,3.39,1.48c1.23,0.21,2.5,0.11,3.69-0.28c0.12-0.03,0.21-0.1,0.28-0.2
			s0.09-0.22,0.07-0.34c-0.02-0.12-0.1-0.22-0.2-0.29C342.25,295.26,342.13,295.24,342.01,295.26z"/>
		<path class="st2" d="M14.98,258.64c-10.8-17.4-13.58-40.89-2.67-58.22c7.2,21.08,21.61,38.93,40.7,50.39
			c7.38,4.4,16.04,8.52,18.96,16.59c1.82,5.02,0.93,10.71-1.26,15.59c-2.19,4.88-5.58,9.1-8.93,13.26l-0.27,1.31
			C43.3,288.2,25.78,276.03,14.98,258.64z"/>
		<path class="st3" d="M12.7,200.6c-0.83,16.93,3.69,33.7,12.92,47.91c1.93,3.1,4.34,5.87,7.14,8.21c2.8,2.2,6.13,3.6,9.66,4.07
			c3.28,0.5,6.69,0.64,9.79,1.94c1.58,0.68,2.99,1.7,4.15,2.97s2.03,2.77,2.57,4.4c1.44,4.03,1.35,8.35,1.12,12.56
			c-0.26,4.68-0.61,9.54,1.25,13.96c0.22,0.54-0.62,0.85-0.84,0.32c-3.23-7.7-0.04-16.13-1.69-24.08c-0.77-3.71-2.66-7.21-6.16-8.96
			c-3.06-1.53-6.57-1.67-9.9-2.15c-3.44-0.41-6.74-1.66-9.59-3.63c-2.91-2.2-5.42-4.87-7.43-7.91c-4.63-6.77-8.17-14.22-10.49-22.09
			c-2.7-8.96-3.84-18.32-3.38-27.68C11.84,199.87,12.73,200.02,12.7,200.6L12.7,200.6z"/>
		<path class="st3" d="M22.38,244.11c-2.59,1.23-5.54,1.49-8.31,0.74s-5.19-2.45-6.81-4.82c-0.33-0.48,0.4-1.01,0.73-0.53
			c1.51,2.2,3.76,3.79,6.34,4.48c2.58,0.69,5.32,0.43,7.73-0.72C22.58,243.01,22.9,243.86,22.38,244.11L22.38,244.11z"/>
		<path class="st3" d="M40.72,260.76c2.03-5.51,1.91-11.57-0.34-16.99c-0.22-0.54,0.62-0.85,0.84-0.32
			c2.33,5.65,2.44,11.96,0.32,17.68C41.34,261.67,40.52,261.3,40.72,260.76L40.72,260.76z"/>
		<path class="st3" d="M13.68,219.3c1.1-0.27,2.12-0.8,2.97-1.56c0.84-0.76,1.49-1.71,1.87-2.78c0.2-0.55,1.02-0.17,0.82,0.37
			c-0.43,1.18-1.14,2.23-2.07,3.07s-2.05,1.43-3.27,1.74c-0.11,0.04-0.23,0.03-0.34-0.02c-0.11-0.05-0.19-0.14-0.24-0.25
			c-0.04-0.11-0.04-0.24,0.01-0.35C13.48,219.42,13.57,219.34,13.68,219.3L13.68,219.3z"/>
		<path class="st2" d="M81.05,191.53c-0.11,0.35-0.22,0.69-0.33,1.04c-1.49,4.65-2.6,9.42-3.31,14.25
			c-0.06,0.37-0.12,0.75-0.17,1.12c-1.6,11.66-1.03,23.52,1.7,34.97c1.09,4.56,2.52,9.02,4.29,13.36
			c2.44,5.99,5.56,12.29,5.87,18.56c0.04,0.65,0.04,1.31,0,1.96l-25.96,20.98c-0.08,0.02-0.16,0.04-0.24,0.06l-1,0.89
			c-0.11-0.22-0.21-0.45-0.32-0.66c-0.06-0.13-0.12-0.26-0.18-0.38c-0.04-0.08-0.08-0.17-0.12-0.25c-0.01-0.03-0.03-0.06-0.03-0.08
			c-0.04-0.07-0.07-0.15-0.11-0.22c-0.6-1.27-1.18-2.55-1.76-3.83c0-0.01,0-0.01,0-0.02c-4.4-9.8-8.01-20.04-9.96-30.52
			c-0.06-0.32-0.12-0.64-0.17-0.96c-0.85-4.73-1.32-9.51-1.39-14.31c-0.03-2.63,0.07-5.26,0.31-7.88c0.62-6.76,2.3-13.39,4.98-19.63
			c5.34-12.44,14.6-23.04,26.98-28.08C80.41,191.78,80.73,191.65,81.05,191.53z"/>
		<path class="st3" d="M81.26,191.91c-10.85,13.02-17.33,29.13-18.51,46.04c-0.32,3.64-0.06,7.3,0.76,10.86
			c0.91,3.44,2.73,6.57,5.26,9.07c2.31,2.38,4.95,4.54,6.65,7.44c0.85,1.5,1.37,3.15,1.53,4.87c0.16,1.71-0.04,3.44-0.6,5.07
			c-1.27,4.09-3.94,7.48-6.67,10.7c-3.02,3.58-6.22,7.25-7.4,11.9c-0.14,0.56-1.01,0.31-0.87-0.25c2.05-8.09,9.68-12.9,13.14-20.24
			c1.62-3.43,2.21-7.36,0.47-10.86c-1.52-3.06-4.24-5.3-6.61-7.68c-2.5-2.4-4.38-5.38-5.47-8.68c-1-3.5-1.4-7.15-1.17-10.79
			c0.37-8.19,2.03-16.28,4.92-23.96c3.24-8.78,7.96-16.94,13.95-24.13C81.01,190.81,81.62,191.46,81.26,191.91L81.26,191.91z"/>
		<path class="st3" d="M62.8,232.48c-2.81-0.58-5.32-2.15-7.08-4.41c-1.76-2.26-2.66-5.08-2.54-7.95c0.01-0.12,0.06-0.23,0.14-0.31
			c0.09-0.08,0.2-0.12,0.32-0.12s0.23,0.05,0.31,0.13c0.08,0.08,0.13,0.19,0.13,0.31c-0.12,2.67,0.72,5.29,2.37,7.4
			s3.99,3.55,6.61,4.08C63.62,231.73,63.37,232.59,62.8,232.48L62.8,232.48z"/>
		<path class="st3" d="M67.42,256.82c4.93-3.18,8.49-8.09,9.96-13.77c0.15-0.56,1.01-0.31,0.87,0.25
			c-1.54,5.91-5.25,11.02-10.39,14.31C67.37,257.92,66.94,257.13,67.42,256.82L67.42,256.82z"/>
		<path class="st3" d="M70.79,207.43c1.04,0.45,2.18,0.64,3.31,0.54s2.22-0.47,3.17-1.09c0.49-0.32,0.92,0.48,0.43,0.79
			c-1.05,0.68-2.25,1.09-3.5,1.2c-1.25,0.11-2.5-0.09-3.66-0.58c-0.11-0.04-0.21-0.11-0.26-0.22c-0.06-0.1-0.07-0.22-0.04-0.34
			c0.03-0.12,0.11-0.21,0.22-0.27C70.55,207.41,70.67,207.4,70.79,207.43L70.79,207.43z"/>
		<path class="st4" d="M215.47,81.04c15.79,0,28.59-12.8,28.59-28.6c0-15.79-12.8-28.6-28.59-28.6c-15.79,0-28.58,12.8-28.58,28.6
			C186.88,68.23,199.68,81.04,215.47,81.04z"/>
		<path class="st2" d="M302.99,50.95c-2.58-2.72-5.29-5.3-8.15-7.74c-5.57-4.72-11.73-8.74-18.61-11.27
			c-2.59-0.96-5.26-1.66-7.98-2.1c-0.33-0.05-0.65-0.11-0.98-0.15c-0.02,0-0.05,0-0.07,0c-0.05-0.01-0.1-0.02-0.15-0.03
			c-0.67-0.09-1.34-0.15-2.01-0.2c-3.63-0.24-7.27,0.09-10.79,0.97c-2.04,0.52-4.04,1.21-5.96,2.08c-1.93,0.94-3.79,2-5.59,3.17
			c-0.97,0.59-1.96,1.12-2.98,1.61c-2.98,1.41-6.13,2.42-9.38,3c-2.19,0.39-4.41,0.61-6.64,0.65c-1.93,0.04-3.76,0.11-5.59,0.8
			c-1.96,0.74-3.71,1.92-5.13,3.45c-1.42,1.54-2.45,3.38-3.03,5.39c-0.04,0.18-0.03,0.37,0.04,0.54c0.07,0.17,0.19,0.31,0.35,0.41
			c0.49,0.36,0.98,0.76,1.5,1.08c0.46,0.21,0.96,0.35,1.46,0.4c0.83,0.17,1.66,0.34,2.49,0.51c3.05,0.61,6.12,1.14,9.2,1.61
			c6.19,0.94,12.42,1.6,18.69,1.98c0.04,0.01,0.08,0.01,0.12,0.01c7.08,0.43,14.17,0.5,21.26,0.21c1.07-0.04,2.14-0.1,3.21-0.16
			c4.47-0.25,8.92-0.64,13.37-1.18c4.11-0.5,8.21-1.12,12.29-1.86c2.92-0.53,5.82-1.12,8.71-1.77c0.14-0.04,0.27-0.12,0.37-0.22
			c0.1-0.11,0.17-0.23,0.21-0.38c0.04-0.14,0.04-0.29,0-0.43C303.16,51.18,303.09,51.05,302.99,50.95L302.99,50.95z"/>
		<path class="st2" d="M243.57,89.08c-4.14-4.43-8.7-8.44-13.61-11.99c-1.63-1.15-3.31-2.22-5.04-3.21
			c-2.12-1.22-4.31-2.3-6.58-3.22c-0.51-0.21-1.01-0.4-1.52-0.59c-2.9-1.07-5.9-1.83-8.96-2.25c-0.02,0-0.05,0-0.07,0
			c-0.05-0.01-0.1-0.02-0.15-0.03c-1.48-0.19-2.98-0.28-4.47-0.27c-1.07,0-2.15,0.06-3.22,0.16c-1.73,0.17-3.43,0.47-5.12,0.89
			c-0.83,0.21-1.66,0.45-2.47,0.72c-1.18,0.39-2.35,0.84-3.49,1.36c-0.02,0.01-0.03,0.01-0.05,0.02c-1.91,0.93-3.76,1.99-5.54,3.15
			c-0.04,0.02-0.08,0.05-0.12,0.07c-2.02,1.21-4.16,2.21-6.39,2.99c-1.91,0.67-3.87,1.19-5.86,1.55c-2.19,0.39-4.41,0.61-6.64,0.65
			c-1.93,0.04-3.76,0.11-5.58,0.81c-1.96,0.73-3.71,1.92-5.13,3.45c-1.42,1.54-2.46,3.38-3.04,5.39c-0.04,0.18-0.03,0.37,0.04,0.54
			c0.07,0.17,0.19,0.31,0.35,0.41c0.5,0.36,0.98,0.76,1.5,1.07c0.46,0.21,0.96,0.35,1.46,0.4c0.83,0.17,1.65,0.35,2.49,0.51
			c3.05,0.61,6.12,1.14,9.2,1.61c4.23,0.64,8.47,1.15,12.73,1.53c2.02,0.19,4.04,0.34,6.06,0.46c5.19,0.31,10.38,0.43,15.58,0.37
			c1.07-0.01,2.15-0.04,3.22-0.07c6.37-0.19,12.72-0.67,19.04-1.43c7.05-0.85,14.06-2.07,20.99-3.63c0.14-0.04,0.27-0.12,0.37-0.22
			c0.1-0.1,0.18-0.23,0.21-0.38c0.04-0.14,0.04-0.29,0-0.43C243.75,89.31,243.68,89.18,243.57,89.08L243.57,89.08z"/>
		<path class="st5" d="M172.33,12.33l25.18,348.17l-50.37,4.47V16.76C153.14,12.07,161.76,11.33,172.33,12.33z"/>
		<path class="st5" d="M296.63,12.33l-25.18,348.17l50.37,4.47V16.76C315.81,12.07,307.2,11.33,296.63,12.33z"/>
		<path class="st5" d="M323,16.91c-1.56-3.83-4.89-6.48-8.73-6.48H154.15c-5.34,0-9.68,5.13-9.68,11.44v346.05
			c-0.05,3.2,1.15,6.3,3.34,8.63c1.14,1.2,2.59,2.07,4.19,2.52c0.7,0.19,1.43,0.29,2.15,0.29h160.12c0.73,0,1.45-0.1,2.15-0.29
			c4.31-1.16,7.53-5.71,7.53-11.15V21.87C323.96,20.17,323.63,18.48,323,16.91L323,16.91z M320.74,367.92c0,4.21-2.9,7.64-6.47,7.64
			H154.15c-2.96,0-5.46-2.36-6.23-5.57c-0.16-0.68-0.25-1.38-0.25-2.08V21.87c0-4.21,2.9-7.64,6.47-7.64h160.12
			c0.66,0,1.31,0.12,1.92,0.35c2.63,0.97,4.55,3.87,4.55,7.29V367.92z"/>
		<path class="st5" d="M322.35,115.62H146.07v3.22h176.28V115.62z"/>
		<path class="st5" d="M322.35,49.22H146.07v3.22h176.28V49.22z"/>
		<path class="st5" d="M322.35,169.22H146.07v3.22h176.28V169.22z"/>
		<path class="st5" d="M203.27,11.87h-3.21v202.91h3.21V11.87z"/>
		<path class="st5" d="M268.36,11.87h-3.21v202.91h3.21V11.87z"/>
		<path class="st6" d="M342.44,359.25h-211.1c-3.83,0.01-7.51,1.53-10.22,4.24c-2.71,2.71-4.24,6.39-4.24,10.23
			c0,1.85,0.35,3.67,1.04,5.38c1.07,2.68,2.93,4.98,5.32,6.6s5.21,2.49,8.1,2.49h211.1c2.53,0,5.01-0.66,7.2-1.92
			c2.19-1.26,4.01-3.07,5.29-5.25c0.36-0.62,0.68-1.26,0.94-1.92c0.69-1.71,1.05-3.54,1.04-5.38c-0.01-3.84-1.53-7.52-4.24-10.23
			C349.95,360.78,346.27,359.26,342.44,359.25z"/>
		<path class="st5" d="M322.35,207.28H147.14V218h175.21V207.28z"/>
		<path class="st5" d="M233.14,204.07h3.21c1.56,0,3.06,0.62,4.17,1.73s1.73,2.61,1.73,4.17l0,0h-15c0-0.77,0.15-1.54,0.45-2.26
			c0.3-0.71,0.73-1.36,1.28-1.91c0.55-0.55,1.2-0.98,1.91-1.28S232.36,204.07,233.14,204.07L233.14,204.07z"/>
		<path class="st7" d="M237.84,237.52c18.34,0,33.2-14.87,33.2-33.22c0-18.35-14.87-33.22-33.2-33.22s-33.2,14.87-33.2,33.22
			C204.63,222.65,219.5,237.52,237.84,237.52z"/>
		<path class="st8" d="M200.8,172.34c0.25-3.81,2.77-7.72,10.78-9.76c0,0,13.75-17.59,32.43-8.37c0,0,9.06-1.56,15.77,7.84
			c0,0,6.66-3.93,9.47,3.04c0,0,7.81,14.21,4.93,28.7c-2.88,14.49-4.35,16.3-4.35,16.3s3.66-29.97-17.44-27.89
			c-21.11,2.08-38.1-5.35-42.88,10.91c-3.97,13.5-3.47,20.52-3.47,20.52s-13.27-13.47-8.76-24.08
			C199.59,184.12,200.41,178.22,200.8,172.34z"/>
		<path class="st9" d="M147.54,385.85H331.2c-1.23-14.02-2.03-67.6-2.03-71.12c0-15.55-12.72-32.53-12.72-32.53l-4.55-2.52
			l-38.02-11.87l-9.84-12.79c-1.03-1.34-2.36-2.43-3.88-3.17c-1.52-0.74-3.19-1.12-4.88-1.11l-31.08,0.23
			c-2.74,0.02-5.37,1.06-7.37,2.92l-19.25,17.87l-28.23,13.49l-0.05-0.05l-0.29,0.22l-4.19,3.02l-2.69,1.95
			c0,0-7.07,8.49-12.72,33.94C148.54,328.16,147.94,377.72,147.54,385.85z"/>
		<path class="st6" d="M373.71,379.11c-0.44,0.4-0.89,0.8-1.34,1.2c-1.69,1.51-3.41,2.99-5.15,4.44c-2.63,2.19-5.32,4.32-8.05,6.38
			H111.93c-5.04-3.78-9.88-7.79-14.55-12.03H373.71z"/>
		<path class="st8" d="M283.08,382H192.2l1.92-9.14h87.04L283.08,382z"/>
		<path class="st10" d="M365.31,342.55h-23.65c-0.53,0-1.06,0.11-1.55,0.34c-0.48,0.23-0.91,0.55-1.26,0.96
			c-0.33-0.06-0.66-0.1-1-0.1c-0.74,0-1.47,0.14-2.15,0.42c-0.68,0.28-1.3,0.7-1.82,1.22c-0.52,0.52-0.93,1.14-1.22,1.82
			c-0.28,0.68-0.43,1.41-0.43,2.15c0,0.74,0.15,1.47,0.43,2.15c0.28,0.68,0.7,1.3,1.22,1.82c0.52,0.52,1.14,0.93,1.82,1.22
			c0.68,0.28,1.41,0.43,2.15,0.43c0.85,0,1.68-0.19,2.44-0.57l0.39,4.85l1.57,19.17c0.07,0.24,0.17,0.47,0.3,0.69
			c0.32,0.58,0.78,1.07,1.35,1.41c0.57,0.34,1.22,0.52,1.88,0.52h15.38c0.66,0,1.31-0.18,1.88-0.52c0.57-0.34,1.04-0.82,1.36-1.41
			c0.12-0.22,0.22-0.45,0.29-0.69l4.13-31.09c0.17-0.55,0.21-1.14,0.11-1.71c-0.1-0.57-0.33-1.11-0.67-1.58
			c-0.34-0.46-0.79-0.84-1.31-1.1C366.46,342.68,365.89,342.55,365.31,342.55z M337.86,353.37c-1.06,0-2.08-0.42-2.83-1.18
			c-0.75-0.75-1.17-1.77-1.17-2.83c0-1.06,0.42-2.08,1.17-2.83c0.75-0.75,1.77-1.17,2.83-1.18c0.07,0,0.14,0.02,0.21,0.02
			c-0.16,0.65-0.14,1.32,0.06,1.96l1.69,5.5C339.22,353.18,338.55,353.37,337.86,353.37L337.86,353.37z"/>
		<path class="st10" d="M311.89,240.82H162.18c-1.29,0-2.52,0.51-3.43,1.42c-0.91,0.91-1.42,2.14-1.42,3.43v101.07
			c0,1.29,0.51,2.52,1.42,3.43c0.91,0.91,2.14,1.42,3.43,1.42h149.71c1.29,0,2.52-0.51,3.43-1.42s1.42-2.14,1.42-3.43V245.68
			c0-1.29-0.51-2.52-1.42-3.43C314.41,241.34,313.18,240.82,311.89,240.82z"/>
		<path class="st8" d="M253.9,321.81h-35.02c-0.5,0-0.97,0.2-1.32,0.55c-0.35,0.35-0.55,0.83-0.54,1.32v55.35h38.76v-55.35
			c0-0.25-0.05-0.49-0.14-0.72c-0.09-0.23-0.23-0.43-0.41-0.61c-0.17-0.17-0.38-0.31-0.61-0.41
			C254.39,321.86,254.14,321.81,253.9,321.81L253.9,321.81z M236.51,353.26c-1.1-0.01-2.14-0.44-2.92-1.22
			c-0.77-0.78-1.21-1.82-1.22-2.92v-6.39c0-1.1,0.44-2.15,1.21-2.92c0.78-0.77,1.83-1.21,2.92-1.21c1.1,0,2.15,0.44,2.92,1.21
			c0.78,0.77,1.21,1.83,1.21,2.92v6.39c0,1.1-0.44,2.14-1.22,2.92C238.65,352.82,237.6,353.25,236.51,353.26L236.51,353.26z"/>
		<path class="st10" d="M216.89,377.26v5.34c0,0.28,0.11,0.54,0.31,0.74c0.19,0.2,0.46,0.31,0.74,0.31h36.91
			c0.28,0,0.54-0.11,0.74-0.31c0.2-0.2,0.31-0.46,0.31-0.74v-5.34H216.89z"/>
		<path class="st8" d="M308.71,345.69c1.3,0,2.36-1.06,2.36-2.36s-1.06-2.36-2.36-2.36c-1.31,0-2.36,1.06-2.36,2.36
			S307.4,345.69,308.71,345.69z"/>
		<path class="st8" d="M181.08,339.9c-0.11,0-0.22,0.02-0.32,0.06c-0.1,0.04-0.19,0.1-0.27,0.18c-0.08,0.08-0.14,0.17-0.18,0.27
			c-0.04,0.1-0.06,0.21-0.06,0.32v4.26c0,0.22,0.09,0.43,0.24,0.58c0.15,0.15,0.36,0.24,0.58,0.24c0.22,0,0.43-0.09,0.58-0.24
			c0.15-0.16,0.24-0.37,0.24-0.58v-4.26c0-0.11-0.02-0.22-0.06-0.32c-0.04-0.1-0.1-0.19-0.18-0.27c-0.08-0.08-0.17-0.14-0.27-0.18
			C181.3,339.92,181.19,339.9,181.08,339.9L181.08,339.9z"/>
		<path class="st8" d="M185.57,339.9c-0.11,0-0.22,0.02-0.32,0.06c-0.1,0.04-0.19,0.1-0.27,0.18c-0.08,0.08-0.14,0.17-0.18,0.27
			c-0.04,0.1-0.06,0.21-0.06,0.32v4.26c0,0.22,0.09,0.43,0.24,0.58s0.37,0.24,0.58,0.24c0.22,0,0.43-0.09,0.59-0.24
			s0.24-0.36,0.24-0.58v-4.26c0-0.11-0.02-0.22-0.06-0.32c-0.04-0.1-0.1-0.19-0.18-0.27c-0.08-0.08-0.17-0.14-0.27-0.18
			C185.79,339.92,185.68,339.9,185.57,339.9L185.57,339.9z"/>
		<path class="st8" d="M190.07,339.9c-0.11,0-0.22,0.02-0.32,0.06c-0.1,0.04-0.19,0.1-0.27,0.18c-0.08,0.08-0.14,0.17-0.18,0.27
			c-0.04,0.1-0.06,0.21-0.06,0.32v4.26c0,0.22,0.09,0.43,0.24,0.58c0.15,0.15,0.37,0.24,0.58,0.24s0.43-0.09,0.58-0.24
			c0.15-0.16,0.24-0.37,0.24-0.58v-4.26c0-0.11-0.02-0.22-0.06-0.32c-0.04-0.1-0.1-0.19-0.18-0.27c-0.08-0.08-0.17-0.14-0.27-0.18
			C190.28,339.92,190.17,339.9,190.07,339.9z"/>
		<path class="st8" d="M194.56,339.9c-0.11,0-0.22,0.02-0.32,0.06c-0.1,0.04-0.19,0.1-0.27,0.18c-0.08,0.08-0.14,0.17-0.18,0.27
			c-0.04,0.1-0.06,0.21-0.06,0.32v4.26c0,0.22,0.09,0.43,0.24,0.58c0.15,0.15,0.37,0.24,0.58,0.24c0.22,0,0.43-0.09,0.58-0.24
			c0.15-0.16,0.24-0.37,0.24-0.58v-4.26c0-0.11-0.02-0.22-0.06-0.32c-0.04-0.1-0.1-0.19-0.18-0.27c-0.08-0.08-0.17-0.14-0.27-0.18
			C194.77,339.92,194.67,339.9,194.56,339.9L194.56,339.9z"/>
		<path class="st7" d="M198.14,379.59c6.9,0,12.5-5.6,12.5-12.51c0-6.91-5.6-12.51-12.5-12.51c-6.91,0-12.5,5.6-12.5,12.51
			C185.64,373.99,191.23,379.59,198.14,379.59z"/>
		<path class="st7" d="M285.49,382c6.91,0,12.5-5.6,12.5-12.51c0-6.91-5.6-12.51-12.5-12.51c-6.9,0-12.5,5.6-12.5,12.51
			C272.98,376.4,278.58,382,285.49,382z"/>
		<path class="st10" d="M414.54,218.5c-1.23-2.04-2.7-4.23-4.99-4.89c-2.65-0.77-5.38,0.76-7.7,2.28
			c-6.92,4.53-13.58,9.44-19.96,14.71l0.01,0.08c4.96-0.34,9.08,12.86,14.05,12.52c3.59-0.25,8.14-14.08,11.31-15.78
			c1.2-0.64,2.38-1.5,3.74-1.56c1.69-0.07,3.17,1.11,4.33,2.35c6.86,7.31,8.85,18.5,16.55,24.92
			C427.03,241.14,421.23,229.56,414.54,218.5L414.54,218.5z"/>
		<path class="st10" d="M427.75,236.26c3.62,6.54,7.46,12.96,11.52,19.24v0c-0.02,0.22-0.06,0.44-0.09,0.66
			c-0.49-0.75-0.98-1.5-1.46-2.26c-3.64-5.72-7.11-11.55-10.39-17.49c-1.56-2.82-3.08-5.67-4.56-8.54
			c-1.14-2.22-2.26-4.46-3.36-6.71c-0.31-0.64-0.62-1.29-0.92-1.94c-0.71-1.52-1.41-3.05-2.16-4.55c-0.86-1.71-1.9-3.5-3.47-4.65
			c-0.72-0.55-1.57-0.88-2.47-0.95c-1.26,0.01-2.5,0.36-3.57,1.02c-8.13,4.28-15.73,9.52-22.62,15.6
			c-6.9,6.06-13.06,12.91-18.37,20.4c-0.16,0.23-0.55,0.01-0.38-0.23c0.65-0.91,1.3-1.81,1.98-2.71
			c8.34-11.1,18.58-20.65,30.22-28.2c1.96-1.27,3.95-2.48,5.99-3.63c1.02-0.58,2.05-1.15,3.1-1.69c1-0.59,2.13-0.94,3.29-1.02
			c3.99-0.06,6.06,4.46,7.48,7.5c0.44,0.96,0.89,1.91,1.35,2.87c1.73,3.61,3.52,7.19,5.38,10.74
			C425.38,231.92,426.55,234.1,427.75,236.26z"/>
		<path class="st10" d="M383.81,223.47c-0.23-0.26-0.46-0.52-0.7-0.78c-1.84-2.04-3.82-4.05-6.34-5.22
			c-1.21-0.57-2.52-0.88-3.85-0.89c-1.38,0.04-2.74,0.33-4,0.87c-0.6,0.24-1.19,0.51-1.77,0.8c-0.66,0.33-1.31,0.69-1.96,1.05
			c-1.22,0.67-2.42,1.38-3.6,2.11c-2.36,1.46-4.64,3.03-6.85,4.71c-1.15,0.87-2.27,1.77-3.37,2.7c-1.02,0.86-2.02,1.75-3,2.66
			c-0.21,0.19-0.52-0.12-0.31-0.31c0.26-0.24,0.52-0.48,0.78-0.72c0.74-0.67,1.49-1.32,2.25-1.97c1.39-1.17,2.82-2.3,4.28-3.38
			c2.27-1.68,4.62-3.25,7.05-4.71c1.21-0.73,2.45-1.42,3.69-2.09c0.38-0.2,0.76-0.4,1.14-0.58c0.88-0.44,1.78-0.81,2.72-1.11
			c1.32-0.43,2.72-0.57,4.1-0.4c1.33,0.19,2.62,0.64,3.79,1.31c2.48,1.39,4.4,3.53,6.28,5.63
			C384.31,223.37,384,223.68,383.81,223.47z"/>
		<path class="st10" d="M365.66,233.27c-0.63,0.03-1.25-0.15-1.77-0.51c-1.37-1.04-1.34-3.54,0.11-7.64
			c0.39-1.11,1.01-2.13,1.81-2.99c0.8-0.86,1.77-1.55,2.85-2.03c1.01-0.45,2.11-0.69,3.21-0.7c1.11-0.01,2.21,0.22,3.22,0.66
			c0.18,0.08,0.35,0.16,0.52,0.25c1.18,0.66,2.28,1.44,3.29,2.34c0.86,0.75,1.78,1.42,2.74,2.03l0.32,0.19l-0.3,0.22
			C373.88,230.56,368.6,233.27,365.66,233.27z"/>
		<path class="st10" d="M395.61,200.61c-2.56,0-5.04-0.89-7.02-2.52c-1.98-1.63-3.33-3.89-3.83-6.4c-2.14,0.43-4.11,1.49-5.65,3.04
			c-1.54,1.55-2.59,3.52-3.01,5.67c-0.42,2.15-0.2,4.37,0.64,6.39c0.84,2.02,2.26,3.74,4.08,4.96c1.82,1.21,3.95,1.86,6.14,1.86
			c2.18,0,4.32-0.65,6.14-1.86c1.82-1.21,3.23-2.94,4.07-4.96c0.84-2.02,1.06-4.24,0.64-6.39
			C397.08,200.54,396.35,200.61,395.61,200.61L395.61,200.61z"/>
		<path class="st11" d="M99.54,218.42c9.12,0,16.51-7.39,16.51-16.51s-7.39-16.51-16.51-16.51c-9.12,0-16.51,7.39-16.51,16.51
			S90.42,218.42,99.54,218.42z"/>
		<path class="st12" d="M116.04,218.42c9.12,0,16.5-7.39,16.5-16.51s-7.39-16.51-16.5-16.51c-9.11,0-16.5,7.39-16.5,16.51
			S106.93,218.42,116.04,218.42z"/>
		<path class="st13" d="M107.93,205.26c9.12,0,16.51-7.39,16.51-16.51c0-9.12-7.39-16.51-16.51-16.51
			c-9.12,0-16.51,7.39-16.51,16.51C91.43,197.86,98.82,205.26,107.93,205.26z"/>
		<path class="st10" d="M151.09,184.01l-42.4,13.33l0.29,0.92l42.4-13.33L151.09,184.01z"/>
		<path class="st10" d="M151.36,186.24c1.06,0,1.92-0.86,1.92-1.93c0-1.06-0.86-1.92-1.92-1.92c-1.06,0-1.92,0.86-1.92,1.92
			C149.44,185.38,150.3,186.24,151.36,186.24z"/>
		<path class="st10" d="M426.59,270.91c2.82,1.99,5.52,4.01,8.62,5.54c-0.06,0.24-0.12,0.48-0.18,0.71
			c-0.38-0.18-0.75-0.36-1.12-0.56c-3.14-1.64-5.84-3.88-8.79-5.83c-1.46-1.01-3.06-1.81-4.74-2.38c-1.76-0.53-3.59-0.74-5.42-0.64
			c-7.63,0.38-14.17,4.93-21.27,7.23c-3.47,1.13-7.16,1.73-10.79,1.02c-3.62-0.71-6.84-2.63-10.04-4.37
			c-3.15-1.72-6.59-3.45-10.28-3.45c-3,0-6.15,1.21-7.76,3.86c-0.05,0.08-0.13,0.14-0.22,0.16s-0.19,0.01-0.27-0.04
			c-0.08-0.05-0.14-0.12-0.16-0.21c-0.02-0.09-0.01-0.19,0.03-0.27c0.36-0.6,0.8-1.16,1.31-1.64c2.1-1.99,5.18-2.77,8.01-2.54
			c3.66,0.3,7.01,2.03,10.17,3.77c3.36,1.85,6.8,3.84,10.69,4.24c3.84,0.4,7.64-0.6,11.2-1.95c6.89-2.62,13.69-6.99,21.36-6.51
			C420.57,267.29,423.67,268.86,426.59,270.91z"/>
		<path class="st9" d="M124.96,131.77v0.98c-0.32-0.06-0.65-0.1-0.98-0.1h-5.03v10.81c0,1.6-0.64,3.13-1.77,4.26
			c-1.13,1.13-2.66,1.77-4.26,1.77h-7.43v1.66c0,0.67,0.13,1.33,0.39,1.94h-1.03c-0.21-0.63-0.32-1.28-0.32-1.94v-1.66h-4.09v-0.96
			h4.09v-10.81c0-1.6,0.64-3.13,1.77-4.26c1.13-1.13,2.66-1.77,4.26-1.77h7.43V130h0.96v1.68h5.03
			C124.31,131.68,124.63,131.71,124.96,131.77L124.96,131.77z"/>
		<path class="st10" d="M112.92,123.99H99.49c-1.6,0-3.13,0.64-4.26,1.77c-1.13,1.13-1.77,2.67-1.77,4.27v13.43
			c0,1.6,0.64,3.13,1.77,4.26s2.66,1.77,4.26,1.77h13.43c1.6,0,3.13-0.64,4.26-1.77c1.13-1.13,1.77-2.67,1.77-4.26V130
			c-0.01-1.6-0.64-3.13-1.77-4.25C116.04,124.62,114.51,123.99,112.92,123.99L112.92,123.99z M117.99,143.45
			c0,1.34-0.54,2.63-1.49,3.58c-0.95,0.95-2.24,1.49-3.58,1.49H99.49c-1.34,0-2.63-0.54-3.58-1.49c-0.95-0.95-1.48-2.24-1.49-3.58
			v-13.43c0-1.34,0.54-2.63,1.49-3.58c0.95-0.95,2.24-1.49,3.58-1.49h13.43c1.34,0,2.63,0.53,3.58,1.48
			c0.95,0.95,1.49,2.23,1.49,3.57V143.45z"/>
		<path class="st10" d="M104.52,148.52v0.96h0.96v-0.96H104.52z M104.52,148.52v0.96h0.96v-0.96H104.52z M124.96,131.77
			c-0.32-0.05-0.65-0.08-0.98-0.08h-13.43c-1.6,0-3.13,0.64-4.26,1.77c-1.13,1.13-1.77,2.66-1.77,4.26v13.43
			c0,0.66,0.11,1.32,0.32,1.94c0.41,1.19,1.17,2.23,2.2,2.96c1.02,0.73,2.25,1.13,3.51,1.13h13.43c1.6,0,3.13-0.64,4.26-1.77
			s1.77-2.66,1.77-4.26v-13.43c0-1.43-0.51-2.81-1.43-3.9C127.65,132.72,126.37,132,124.96,131.77L124.96,131.77z M129.05,151.15
			c0,1.34-0.54,2.63-1.49,3.58c-0.95,0.95-2.24,1.49-3.58,1.49h-13.43c-1.34,0-2.63-0.54-3.58-1.49c-0.95-0.95-1.49-2.24-1.49-3.58
			v-13.43c0-1.34,0.54-2.63,1.49-3.58c0.95-0.95,2.24-1.49,3.58-1.49h13.43c1.34,0,2.63,0.53,3.58,1.49
			c0.95,0.95,1.49,2.24,1.49,3.59V151.15z M104.52,148.52v0.96h0.96v-0.96H104.52z"/>
		<path class="st9" d="M95.02,273.95H37.99c-0.4,0-0.78,0.16-1.06,0.44c-0.28,0.28-0.44,0.66-0.44,1.06v3.38
			c1.88,7.21,4.16,14.31,6.82,21.27h51.71c0.2,0,0.39-0.04,0.57-0.11c0.18-0.07,0.35-0.18,0.49-0.32c0.14-0.14,0.25-0.3,0.32-0.49
			c0.08-0.18,0.11-0.38,0.11-0.57v-23.16c0-0.4-0.16-0.78-0.44-1.06C95.8,274.11,95.42,273.95,95.02,273.95L95.02,273.95z"/>
		<path class="st14" d="M89.59,307.61H46.36c0.51,1.21,1.04,2.41,1.58,3.6h41.65C91.94,311.24,91.91,307.57,89.59,307.61z"/>
		<path class="st14" d="M89.59,315.85H50.11c0.58,1.21,1.17,2.41,1.78,3.6h37.7C91.94,319.49,91.91,315.82,89.59,315.85z"/>
		<path class="st14" d="M89.59,324.1H54.32c0.64,1.21,1.31,2.4,1.98,3.6h33.29C91.94,327.74,91.91,324.07,89.59,324.1z"/>
		<path class="st10" d="M385.26,102.32h-0.27c0.85,0,1.69,0.2,2.46,0.58h-1.25c-1.34,0-2.63,0.54-3.58,1.49
			c-0.95,0.95-1.49,2.24-1.49,3.58v13.43c0,1.34,0.54,2.63,1.49,3.58c0.95,0.95,2.24,1.49,3.58,1.49h0.79
			c-0.64,0.25-1.32,0.38-2,0.38h0.27c1.47,0,2.88-0.59,3.92-1.63c1.04-1.04,1.63-2.45,1.63-3.92v-13.43c0-1.47-0.59-2.88-1.63-3.92
			C388.15,102.91,386.73,102.33,385.26,102.32L385.26,102.32z"/>
		<path class="st15" d="M385.26,102.32h-0.27c0.85,0,1.69,0.2,2.46,0.58h-1.25c-1.34,0-2.63,0.54-3.58,1.49
			c-0.95,0.95-1.49,2.24-1.49,3.58v13.43c0,1.34,0.54,2.63,1.49,3.58c0.95,0.95,2.24,1.49,3.58,1.49h0.79
			c-0.64,0.25-1.32,0.38-2,0.38h0.27c1.47,0,2.88-0.59,3.92-1.63c1.04-1.04,1.63-2.45,1.63-3.92v-13.43c0-1.47-0.59-2.88-1.63-3.92
			C388.15,102.91,386.73,102.33,385.26,102.32L385.26,102.32z"/>
		<path class="st9" d="M349.68,102.32h-0.27c0.85,0,1.69,0.2,2.46,0.58h-1.25c-1.34,0-2.63,0.54-3.58,1.49
			c-0.95,0.95-1.49,2.24-1.49,3.58v13.43c0,1.34,0.54,2.63,1.49,3.58c0.95,0.95,2.24,1.49,3.58,1.49h0.79
			c-0.64,0.25-1.32,0.38-2,0.38h0.27c1.47,0,2.88-0.59,3.92-1.63c1.04-1.04,1.63-2.45,1.63-3.92v-13.43c0-1.47-0.59-2.88-1.63-3.92
			C352.56,102.91,351.15,102.33,349.68,102.32L349.68,102.32z"/>
		<path class="st15" d="M349.68,102.32h-0.27c0.85,0,1.69,0.2,2.46,0.58h-1.25c-1.34,0-2.63,0.54-3.58,1.49
			c-0.95,0.95-1.49,2.24-1.49,3.58v13.43c0,1.34,0.54,2.63,1.49,3.58c0.95,0.95,2.24,1.49,3.58,1.49h0.79
			c-0.64,0.25-1.32,0.38-2,0.38h0.27c1.47,0,2.88-0.59,3.92-1.63c1.04-1.04,1.63-2.45,1.63-3.92v-13.43c0-1.47-0.59-2.88-1.63-3.92
			C352.56,102.91,351.15,102.33,349.68,102.32L349.68,102.32z"/>
		<path class="st9" d="M350.67,126.52c-1.34,0-2.63-0.54-3.58-1.49c-0.95-0.95-1.48-2.24-1.49-3.58v-13.43
			c0-1.34,0.54-2.63,1.49-3.58c0.95-0.95,2.24-1.49,3.58-1.49h1.25c-0.76-0.38-1.6-0.58-2.46-0.58h-13.43
			c-1.47,0-2.88,0.59-3.92,1.63c-1.04,1.04-1.63,2.45-1.63,3.92v13.43c0,1.47,0.59,2.88,1.63,3.92c1.04,1.04,2.45,1.63,3.92,1.63
			h13.43c0.69,0,1.37-0.13,2.01-0.38H350.67z"/>
		<path class="st10" d="M386.25,126.52c-1.34,0-2.63-0.54-3.58-1.49c-0.95-0.95-1.49-2.24-1.49-3.58v-13.43
			c0-1.34,0.54-2.63,1.49-3.58c0.95-0.95,2.24-1.49,3.58-1.49h1.25c-0.76-0.38-1.6-0.58-2.46-0.58h-13.43
			c-1.47,0-2.88,0.59-3.92,1.63c-1.04,1.04-1.62,2.45-1.63,3.92v13.43c0,1.47,0.59,2.88,1.63,3.92c1.04,1.04,2.45,1.63,3.92,1.63
			h13.43c0.69,0,1.37-0.13,2.01-0.38H386.25z"/>
		<path class="st4" d="M402.11,105.71c4.93,6.78,9.44,13.86,13.5,21.19h-8.41c-1.47,0-2.88-0.59-3.92-1.63
			c-1.04-1.04-1.63-2.45-1.63-3.92v-13.43C401.65,107.16,401.81,106.41,402.11,105.71L402.11,105.71z"/>
		<path class="st5" d="M385.25,133.95l-4.7-7.05l-3.44-5.15c-0.2-0.3-0.48-0.54-0.81-0.69c-0.33-0.15-0.7-0.2-1.05-0.15
			c-0.36,0.05-0.69,0.2-0.97,0.44s-0.48,0.54-0.58,0.89l-1.45,4.66l-2.91,9.36c-0.12,0.37-0.11,0.77,0,1.14
			c0.12,0.37,0.35,0.7,0.65,0.94c0.31,0.24,0.68,0.38,1.07,0.4c0.39,0.02,0.78-0.08,1.11-0.28l1.03-0.64
			c0.21-0.13,0.45-0.2,0.69-0.21c0.24-0.01,0.49,0.04,0.71,0.15c0.22,0.11,0.41,0.27,0.54,0.47c0.14,0.2,0.22,0.44,0.24,0.68
			l0.95,10.34c0.05,0.47,0.26,0.92,0.62,1.24c0.35,0.32,0.81,0.5,1.29,0.5c0.06,0,0.12,0,0.18-0.01l1.45-0.13
			c0.25-0.02,0.49-0.09,0.72-0.21c0.22-0.12,0.42-0.28,0.58-0.47c0.16-0.19,0.28-0.42,0.36-0.66c0.07-0.24,0.1-0.49,0.08-0.74
			l-0.98-10.68c-0.02-0.25,0.02-0.5,0.12-0.73c0.11-0.23,0.27-0.43,0.48-0.57c0.21-0.15,0.45-0.23,0.7-0.26
			c0.25-0.02,0.5,0.02,0.73,0.13l0.21,0.1c0.38,0.17,0.8,0.22,1.21,0.13c0.41-0.09,0.77-0.31,1.05-0.63
			c0.27-0.32,0.43-0.72,0.45-1.13C385.6,134.71,385.48,134.3,385.25,133.95L385.25,133.95z"/>
	</g>
</g>
</svg>
