<?xml version="1.0" encoding="utf-8"?>
<!-- Generator: Adobe Illustrator 25.0.0, SVG Export Plug-In . SVG Version: 6.00 Build 0)  -->
<svg version="1.1" id="Layer_1" xmlns="http://www.w3.org/2000/svg" xmlns:xlink="http://www.w3.org/1999/xlink" x="0px" y="0px"
	 viewBox="0 0 613.04 337.68" style="enable-background:new 0 0 613.04 337.68;" xml:space="preserve">
<style type="text/css">
	.st0{fill:#F2F2F2;}
	.st1{fill:#FFFFFF;}
	.st2{fill:#E6E6E6;}
	.st3{fill:#2F2F41;}
	.st4{fill:#F6B7B9;}
	.st5{fill:#EE7271;}
	.st6{fill:#9E616A;}
	.st7{fill:#F6B4B7;}
	.st8{fill:#403D56;}
</style>
<path class="st0" d="M167.78,315.53H506.9v-27.59c0-5.76-5.14-11.43-14.12-15.56l-0.09-0.04c-6.06-2.89-44.78-23.41-65.72-22.79
	c-11.06,0.33-20.54,2.86-28.15,7.52c-23.71,14.53-54.85,19.89-71.3,15.68c-14.5-3.72-54.31-9.86-69.02-9.58
	c-20.6,0.38-20.66,5.03-41.8,20.02c-8.08,5.72-11.1,6.44-48.91,11V315.53z"/>
<path class="st0" d="M98.87,275.95c-0.99-14.88,5.25-29.9,18.18-35.42c-2.61,15.33,0.61,32.36,8.91,47.12
	c3.23,5.75,7.39,11.89,6.5,17.9c-0.55,3.74-3.06,6.71-6.13,8.64c-3.07,1.93-6.69,2.96-10.26,3.98l-0.62,0.66
	C106.95,305.5,99.86,290.83,98.87,275.95z"/>
<path class="st0" d="M161.06,263.88c-0.19,0.15-0.38,0.31-0.57,0.47c-2.54,2.1-4.88,4.43-7,6.97c-0.17,0.19-0.33,0.39-0.49,0.59
	c-5.05,6.26-8.75,13.52-10.86,21.32c-0.86,3.18-1.47,6.42-1.81,9.7c-0.48,4.57-0.63,9.62-2.57,13.44c-0.2,0.4-0.42,0.79-0.67,1.15
	l-23.84,1.23c-0.06-0.02-0.12-0.05-0.18-0.07l-0.94,0.09c0.01-0.17,0.02-0.35,0.02-0.53c0-0.1,0.01-0.2,0.01-0.3
	c0-0.07,0.01-0.14,0.01-0.2c0-0.02,0-0.04,0-0.06c0-0.06,0.01-0.12,0.01-0.17c0.05-1,0.11-2.01,0.18-3.01c0,0,0,0,0-0.01
	c0.41-7.56,1.76-15.03,4.03-22.24c0.07-0.21,0.14-0.43,0.22-0.64c1.06-3.12,2.4-6.15,4-9.02c0.88-1.56,1.84-3.06,2.89-4.51
	c2.71-3.72,6.07-6.92,9.9-9.43c3.92-2.64,8.32-4.44,12.95-5.3c4.63-0.86,9.38-0.74,13.96,0.33
	C160.57,263.75,160.81,263.81,161.06,263.88z"/>
<path class="st1" d="M161.06,264.19c-11.17,2.84-20.97,9.64-27.62,19.17c-1.46,2.03-2.55,4.3-3.22,6.72
	c-0.59,2.51-0.49,5.13,0.28,7.59c0.67,2.39,1.63,4.8,1.73,7.23c0.05,1.19-0.17,2.38-0.66,3.46c-0.49,1.08-1.22,2.04-2.14,2.78
	c-2.22,1.86-5.09,2.71-7.94,3.45c-3.17,0.81-6.47,1.6-8.82,3.83c-0.28,0.27-0.75-0.25-0.47-0.52c4.08-3.88,10.62-3.45,15.36-6.29
	c2.21-1.32,3.94-3.39,4.01-6.19c0.07-2.46-0.92-4.94-1.62-7.36c-0.78-2.4-0.97-4.96-0.55-7.45c0.54-2.45,1.54-4.78,2.93-6.85
	c3.03-4.66,6.88-8.73,11.34-12c5.17-3.82,11.01-6.61,17.21-8.23C161.28,263.43,161.45,264.09,161.06,264.19L161.06,264.19z"/>
<path class="st1" d="M135.36,280.17c-3.31-3.17-4.14-8.05-1.96-11.41c0.22-0.33,0.79,0.07,0.57,0.4c-2.05,3.14-1.26,7.64,1.84,10.61
	C136.14,280.08,135.68,280.48,135.36,280.17z"/>
<path class="st0" d="M575.61,275.06c0.99-14.88-5.25-29.9-18.18-35.42c2.61,15.33-0.61,32.36-8.91,47.12
	c-3.23,5.75-7.39,11.89-6.5,17.9c0.55,3.74,3.06,6.71,6.13,8.64c3.07,1.93,6.69,2.96,10.26,3.98l0.62,0.66
	C567.53,304.62,574.62,289.94,575.61,275.06z"/>
<path class="st1" d="M557.24,239.91c6.41,9.99,9.26,21.9,8.07,33.75c-0.2,2.71-0.8,5.37-1.78,7.9c-1.07,2.53-2.72,4.77-4.81,6.54
	c-1.93,1.7-4.07,3.25-5.62,5.34c-0.76,1.02-1.32,2.18-1.62,3.43c-0.31,1.24-0.37,2.53-0.17,3.79c0.45,2.99,1.98,5.5,3.57,7.88
	c1.77,2.64,3.65,5.35,3.97,8.76c0.04,0.41,0.69,0.24,0.65-0.17c-0.56-5.92-5.49-9.51-7.14-14.9c-0.45-1.3-0.61-2.69-0.45-4.06
	c0.15-1.37,0.61-2.69,1.34-3.85c1.44-2.21,3.65-3.8,5.62-5.51c2.06-1.7,3.74-3.83,4.92-6.25c1.1-2.48,1.8-5.13,2.07-7.84
	c0.67-5.84,0.4-11.75-0.81-17.51c-1.29-6.33-3.76-12.35-7.29-17.75C557.55,239.11,557.03,239.59,557.24,239.91L557.24,239.91z"/>
<path class="st1" d="M565.89,269.68c2.13-0.42,4.07-1.5,5.56-3.1c1.49-1.59,2.45-3.61,2.76-5.79c0.05-0.42-0.6-0.42-0.65,0
	c-0.28,2.02-1.18,3.91-2.57,5.39c-1.39,1.48-3.2,2.48-5.19,2.86c-0.04,0.01-0.08,0.02-0.12,0.04c-0.04,0.02-0.07,0.05-0.09,0.08
	c-0.03,0.03-0.05,0.07-0.06,0.11c-0.01,0.04-0.01,0.08-0.01,0.12c0.01,0.04,0.02,0.08,0.04,0.12c0.02,0.04,0.05,0.07,0.08,0.09
	c0.03,0.03,0.07,0.04,0.11,0.05C565.81,269.69,565.85,269.69,565.89,269.68L565.89,269.68z"/>
<path class="st1" d="M559.81,287.35c-1.59-1.2-2.9-2.72-3.87-4.47c-0.96-1.75-1.55-3.69-1.72-5.68c-0.04-0.41-0.69-0.24-0.65,0.17
	c0.18,2.08,0.8,4.09,1.8,5.91c1.01,1.82,2.38,3.4,4.04,4.64C559.72,288.16,560.12,287.58,559.81,287.35L559.81,287.35z"/>
<path class="st1" d="M563,251.34c-0.74,0.32-1.55,0.45-2.36,0.37c-0.8-0.08-1.57-0.37-2.23-0.84c-0.31-0.24-0.71,0.33-0.4,0.57
	c0.73,0.51,1.58,0.83,2.47,0.93c0.89,0.09,1.78-0.04,2.61-0.39c0.08-0.03,0.16-0.08,0.21-0.15c0.05-0.07,0.08-0.16,0.07-0.25
	c-0.01-0.04-0.02-0.08-0.04-0.11c-0.02-0.04-0.05-0.06-0.09-0.09c-0.03-0.02-0.07-0.04-0.11-0.04
	C563.08,251.33,563.04,251.33,563,251.34L563,251.34z"/>
<path class="st0" d="M510.26,263.88c0.19,0.15,0.38,0.31,0.57,0.47c2.54,2.1,4.88,4.43,7,6.97c0.17,0.19,0.33,0.39,0.49,0.59
	c5.05,6.26,8.75,13.52,10.86,21.32c0.86,3.18,1.47,6.42,1.81,9.7c0.48,4.57,0.63,9.62,2.57,13.44c0.2,0.4,0.42,0.79,0.67,1.15
	l23.84,1.23c0.06-0.02,0.12-0.05,0.18-0.07l0.94,0.09c-0.01-0.17-0.02-0.35-0.02-0.53c0-0.1-0.01-0.2-0.01-0.3
	c0-0.07-0.01-0.14-0.01-0.2c0-0.02,0-0.04-0.01-0.06c0-0.06-0.01-0.12-0.01-0.17c-0.05-1-0.11-2.01-0.18-3.01c0,0,0,0,0-0.01
	c-0.41-7.56-1.76-15.03-4.03-22.24c-0.07-0.21-0.14-0.43-0.22-0.64c-1.06-3.12-2.4-6.15-4-9.02c-0.88-1.56-1.84-3.06-2.89-4.51
	c-2.71-3.72-6.07-6.92-9.9-9.43c-3.92-2.64-8.32-4.44-12.95-5.3c-4.63-0.86-9.38-0.74-13.96,0.33
	C510.75,263.75,510.51,263.81,510.26,263.88z"/>
<path class="st1" d="M510.26,264.19c11.17,2.84,20.97,9.64,27.62,19.17c1.46,2.03,2.55,4.3,3.22,6.72c0.59,2.51,0.49,5.13-0.28,7.59
	c-0.67,2.39-1.63,4.8-1.73,7.23c-0.05,1.19,0.17,2.38,0.66,3.46c0.49,1.08,1.22,2.04,2.14,2.78c2.22,1.86,5.09,2.71,7.94,3.45
	c3.16,0.81,6.47,1.6,8.82,3.83c0.28,0.27,0.75-0.25,0.47-0.52c-4.08-3.88-10.62-3.45-15.36-6.29c-2.21-1.32-3.93-3.39-4.01-6.19
	c-0.07-2.46,0.92-4.94,1.62-7.36c0.78-2.4,0.97-4.96,0.55-7.45c-0.54-2.45-1.53-4.78-2.93-6.85c-3.03-4.66-6.88-8.73-11.34-12
	c-5.17-3.82-11.01-6.61-17.21-8.23C510.04,263.43,509.87,264.09,510.26,264.19L510.26,264.19z"/>
<path class="st1" d="M535.97,280.17c3.31-3.17,4.14-8.05,1.96-11.41c-0.22-0.33-0.79,0.07-0.57,0.4c2.05,3.14,1.26,7.64-1.84,10.61
	C535.18,280.08,535.65,280.48,535.97,280.17z"/>
<path class="st1" d="M522.28,268.84c-0.5,0.71-1.15,1.29-1.9,1.72c-0.75,0.42-1.58,0.68-2.44,0.74c-0.42,0.02-0.43,0.67-0.01,0.65
	c0.95-0.07,1.87-0.35,2.7-0.82s1.55-1.11,2.11-1.89c0.06-0.06,0.09-0.14,0.1-0.23s-0.03-0.17-0.09-0.23
	c-0.07-0.05-0.16-0.07-0.24-0.06C522.42,268.73,522.34,268.77,522.28,268.84L522.28,268.84z"/>
<path class="st2" d="M549.86,202.9h-8.87v-1.47h8.87V202.9z M532.12,202.9h-8.87v-1.47h8.87V202.9z M514.38,202.9h-8.87v-1.47h8.87
	V202.9z M496.64,202.9h-8.87v-1.47h8.87V202.9z M478.9,202.9h-8.87v-1.47h8.87V202.9z M461.16,202.9h-8.87v-1.47h8.87V202.9z
	 M443.42,202.9h-8.87v-1.47h8.87V202.9z M425.68,202.9h-8.87v-1.47h8.87V202.9z M407.94,202.9h-8.87v-1.47h8.87V202.9z M390.2,202.9
	h-8.87v-1.47h8.87V202.9z M372.46,202.9h-8.87v-1.47h8.87V202.9z M354.72,202.9h-8.87v-1.47h8.87V202.9z M336.98,202.9h-8.87v-1.47
	h8.87V202.9z M319.24,202.9h-8.87v-1.47h8.87V202.9z M301.5,202.9h-8.87v-1.47h8.87V202.9z M283.76,202.9h-8.87v-1.47h8.87V202.9z
	 M266.02,202.9h-8.87v-1.47h8.87V202.9z M248.28,202.9h-8.87v-1.47h8.87V202.9z M230.54,202.9h-8.87v-1.47h8.87V202.9z M212.8,202.9
	h-8.87v-1.47h8.87V202.9z M195.06,202.9h-8.87v-1.47h8.87V202.9z M177.32,202.9h-8.87v-1.47h8.87V202.9z M159.58,202.9h-8.87v-1.47
	h8.87V202.9z M141.85,202.9h-8.87v-1.47h8.87V202.9z M124.11,202.9h-8.87v-1.47h8.87V202.9z M106.37,202.9H97.5v-1.47h8.87V202.9z
	 M88.63,202.9h-8.87v-1.47h8.87V202.9z M70.89,202.9h-8.87v-1.47h8.87V202.9z M53.15,202.9h-8.87v-1.47h8.87V202.9z M35.41,202.9
	h-8.87v-1.47h8.87V202.9z M17.67,202.9H8.8v-1.47h8.87V202.9z"/>
<path class="st2" d="M563.1,201.42h-4.37v1.47h4.37V201.42z"/>
<path class="st2" d="M549.86,192.58h-8.87v-1.47h8.87V192.58z M532.12,192.58h-8.87v-1.47h8.87V192.58z M514.38,192.58h-8.87v-1.47
	h8.87V192.58z M496.64,192.58h-8.87v-1.47h8.87V192.58z M478.9,192.58h-8.87v-1.47h8.87V192.58z M461.16,192.58h-8.87v-1.47h8.87
	V192.58z M443.42,192.58h-8.87v-1.47h8.87V192.58z M425.68,192.58h-8.87v-1.47h8.87V192.58z M407.94,192.58h-8.87v-1.47h8.87V192.58
	z M390.2,192.58h-8.87v-1.47h8.87V192.58z M372.46,192.58h-8.87v-1.47h8.87V192.58z M354.72,192.58h-8.87v-1.47h8.87V192.58z
	 M336.98,192.58h-8.87v-1.47h8.87V192.58z M319.24,192.58h-8.87v-1.47h8.87V192.58z M301.5,192.58h-8.87v-1.47h8.87V192.58z
	 M283.76,192.58h-8.87v-1.47h8.87V192.58z M266.02,192.58h-8.87v-1.47h8.87V192.58z M248.28,192.58h-8.87v-1.47h8.87V192.58z
	 M230.54,192.58h-8.87v-1.47h8.87V192.58z M212.8,192.58h-8.87v-1.47h8.87V192.58z M195.06,192.58h-8.87v-1.47h8.87V192.58z
	 M177.32,192.58h-8.87v-1.47h8.87V192.58z M159.58,192.58h-8.87v-1.47h8.87V192.58z M141.85,192.58h-8.87v-1.47h8.87V192.58z
	 M124.11,192.58h-8.87v-1.47h8.87V192.58z M106.37,192.58H97.5v-1.47h8.87V192.58z M88.63,192.58h-8.87v-1.47h8.87V192.58z
	 M70.89,192.58h-8.87v-1.47h8.87V192.58z M53.15,192.58h-8.87v-1.47h8.87V192.58z M35.41,192.58h-8.87v-1.47h8.87V192.58z
	 M17.67,192.58H8.8v-1.47h8.87V192.58z"/>
<path class="st2" d="M563.1,191.1h-4.37v1.47h4.37V191.1z"/>
<path class="st2" d="M549.86,171.2h-8.87v-1.47h8.87V171.2z M532.12,171.2h-8.87v-1.47h8.87V171.2z M514.38,171.2h-8.87v-1.47h8.87
	V171.2z M496.64,171.2h-8.87v-1.47h8.87V171.2z M478.9,171.2h-8.87v-1.47h8.87V171.2z M461.16,171.2h-8.87v-1.47h8.87V171.2z
	 M443.42,171.2h-8.87v-1.47h8.87V171.2z M425.68,171.2h-8.87v-1.47h8.87V171.2z M407.94,171.2h-8.87v-1.47h8.87V171.2z M390.2,171.2
	h-8.87v-1.47h8.87V171.2z M372.46,171.2h-8.87v-1.47h8.87V171.2z M354.72,171.2h-8.87v-1.47h8.87V171.2z M336.98,171.2h-8.87v-1.47
	h8.87V171.2z M319.24,171.2h-8.87v-1.47h8.87V171.2z M301.5,171.2h-8.87v-1.47h8.87V171.2z M283.76,171.2h-8.87v-1.47h8.87V171.2z
	 M266.02,171.2h-8.87v-1.47h8.87V171.2z M248.28,171.2h-8.87v-1.47h8.87V171.2z M230.54,171.2h-8.87v-1.47h8.87V171.2z M212.8,171.2
	h-8.87v-1.47h8.87V171.2z M195.06,171.2h-8.87v-1.47h8.87V171.2z M177.32,171.2h-8.87v-1.47h8.87V171.2z M159.58,171.2h-8.87v-1.47
	h8.87V171.2z M141.85,171.2h-8.87v-1.47h8.87V171.2z M124.11,171.2h-8.87v-1.47h8.87V171.2z M106.37,171.2H97.5v-1.47h8.87V171.2z
	 M88.63,171.2h-8.87v-1.47h8.87V171.2z M70.89,171.2h-8.87v-1.47h8.87V171.2z M53.15,171.2h-8.87v-1.47h8.87V171.2z M35.41,171.2
	h-8.87v-1.47h8.87V171.2z M17.67,171.2H8.8v-1.47h8.87V171.2z"/>
<path class="st2" d="M563.1,169.73h-4.37v1.47h4.37V169.73z"/>
<path class="st2" d="M549.86,156.46h-8.87v-1.47h8.87V156.46z M532.12,156.46h-8.87v-1.47h8.87V156.46z M514.38,156.46h-8.87v-1.47
	h8.87V156.46z M496.64,156.46h-8.87v-1.47h8.87V156.46z M478.9,156.46h-8.87v-1.47h8.87V156.46z M461.16,156.46h-8.87v-1.47h8.87
	V156.46z M443.42,156.46h-8.87v-1.47h8.87V156.46z M425.68,156.46h-8.87v-1.47h8.87V156.46z M407.94,156.46h-8.87v-1.47h8.87V156.46
	z M390.2,156.46h-8.87v-1.47h8.87V156.46z M372.46,156.46h-8.87v-1.47h8.87V156.46z M354.72,156.46h-8.87v-1.47h8.87V156.46z
	 M336.98,156.46h-8.87v-1.47h8.87V156.46z M319.24,156.46h-8.87v-1.47h8.87V156.46z M301.5,156.46h-8.87v-1.47h8.87V156.46z
	 M283.76,156.46h-8.87v-1.47h8.87V156.46z M266.02,156.46h-8.87v-1.47h8.87V156.46z M248.28,156.46h-8.87v-1.47h8.87V156.46z
	 M230.54,156.46h-8.87v-1.47h8.87V156.46z M212.8,156.46h-8.87v-1.47h8.87V156.46z M195.06,156.46h-8.87v-1.47h8.87V156.46z
	 M177.32,156.46h-8.87v-1.47h8.87V156.46z M159.58,156.46h-8.87v-1.47h8.87V156.46z M141.85,156.46h-8.87v-1.47h8.87V156.46z
	 M124.11,156.46h-8.87v-1.47h8.87V156.46z M106.37,156.46H97.5v-1.47h8.87V156.46z M88.63,156.46h-8.87v-1.47h8.87V156.46z
	 M70.89,156.46h-8.87v-1.47h8.87V156.46z M53.15,156.46h-8.87v-1.47h8.87V156.46z M35.41,156.46h-8.87v-1.47h8.87V156.46z
	 M17.67,156.46H8.8v-1.47h8.87V156.46z"/>
<path class="st2" d="M563.1,154.98h-4.37v1.47h4.37V154.98z"/>
<path class="st2" d="M549.86,124.76h-8.87v-1.47h8.87V124.76z M532.12,124.76h-8.87v-1.47h8.87V124.76z M514.38,124.76h-8.87v-1.47
	h8.87V124.76z M496.64,124.76h-8.87v-1.47h8.87V124.76z M478.9,124.76h-8.87v-1.47h8.87V124.76z M461.16,124.76h-8.87v-1.47h8.87
	V124.76z M443.42,124.76h-8.87v-1.47h8.87V124.76z M425.68,124.76h-8.87v-1.47h8.87V124.76z M407.94,124.76h-8.87v-1.47h8.87V124.76
	z M390.2,124.76h-8.87v-1.47h8.87V124.76z M372.46,124.76h-8.87v-1.47h8.87V124.76z M354.72,124.76h-8.87v-1.47h8.87V124.76z
	 M336.98,124.76h-8.87v-1.47h8.87V124.76z M319.24,124.76h-8.87v-1.47h8.87V124.76z M301.5,124.76h-8.87v-1.47h8.87V124.76z
	 M283.76,124.76h-8.87v-1.47h8.87V124.76z M266.02,124.76h-8.87v-1.47h8.87V124.76z M248.28,124.76h-8.87v-1.47h8.87V124.76z
	 M230.54,124.76h-8.87v-1.47h8.87V124.76z M212.8,124.76h-8.87v-1.47h8.87V124.76z M195.06,124.76h-8.87v-1.47h8.87V124.76z
	 M177.32,124.76h-8.87v-1.47h8.87V124.76z M159.58,124.76h-8.87v-1.47h8.87V124.76z M141.85,124.76h-8.87v-1.47h8.87V124.76z
	 M124.11,124.76h-8.87v-1.47h8.87V124.76z M106.37,124.76H97.5v-1.47h8.87V124.76z M88.63,124.76h-8.87v-1.47h8.87V124.76z
	 M70.89,124.76h-8.87v-1.47h8.87V124.76z M53.15,124.76h-8.87v-1.47h8.87V124.76z M35.41,124.76h-8.87v-1.47h8.87V124.76z
	 M17.67,124.76H8.8v-1.47h8.87V124.76z"/>
<path class="st2" d="M563.1,123.29h-4.37v1.47h4.37V123.29z"/>
<path class="st0" d="M207.14,80.69c0,7.94-2.32,15.69-6.68,22.29c-4.36,6.6-10.55,11.74-17.79,14.78
	c-7.24,3.04-15.21,3.83-22.9,2.28c-7.69-1.55-14.75-5.37-20.3-10.98c-5.54-5.61-9.32-12.76-10.85-20.54
	c-1.53-7.78-0.74-15.85,2.26-23.18c3-7.33,8.08-13.6,14.6-18.01c6.52-4.41,14.18-6.76,22.02-6.76c5.21-0.02,10.38,1,15.2,3.01
	c4.82,2.01,9.2,4.96,12.88,8.69c3.68,3.73,6.6,8.16,8.59,13.04C206.15,70.19,207.16,75.42,207.14,80.69L207.14,80.69z"/>
<path class="st3" d="M183.7,71.09l-0.2,0.36c1.75-4.35,0.16-9.72-2.96-13.01c-3.12-3.28-7.44-4.78-11.71-5.38
	c-3.16-0.56-6.42-0.31-9.46,0.74c-4.36,1.7-7.69,5.63-10.47,9.72c-1.27,1.87-2.52,4.01-2.4,6.34c0.12,2.17,1.39,4.01,2.43,5.85
	s1.91,4.13,1.17,6.14c-0.45,1.2-1.39,2.06-2.15,3.04c-0.76,0.98-1.39,2.3-1.02,3.53c0.16,0.47,0.44,0.89,0.82,1.22
	c0.37,0.33,0.82,0.55,1.3,0.65c0.94,0.16,1.89,0.14,2.82-0.07l24.3-3.72c1.65-0.25,3.22-0.91,4.57-1.9c1.35-1,2.44-2.31,3.18-3.83
	c0.74-1.52,1.1-3.19,1.06-4.88C184.95,74.23,184.51,72.57,183.7,71.09L183.7,71.09z"/>
<path class="st4" d="M165.63,86.36c6.56,0,11.88-5.38,11.88-12.03c0-6.64-5.32-12.03-11.88-12.03c-6.56,0-11.88,5.38-11.88,12.03
	C153.75,80.97,159.07,86.36,165.63,86.36z"/>
<path class="st5" d="M195.56,106.47c-6.87,7.91-16.53,12.77-26.91,13.53c-10.38,0.76-20.63-2.64-28.55-9.47l3.4-9.6
	c0.77-1.71,1.98-3.17,3.51-4.23c1.53-1.06,3.31-1.68,5.16-1.79l2.16-0.13l5.16-4.5c0,0,13.9-0.5,13.69-0.74l8.42,5.13l-0.01-0.04
	l3.31,0.21c1.85,0.11,3.63,0.73,5.16,1.79c1.53,1.06,2.74,2.52,3.51,4.23L195.56,106.47z"/>
<path class="st3" d="M176.9,63.17c-0.31-1.64-1.96-2.39-3.38-2.76c-4.11-1.06-8.39-1.3-12.59-0.7c-3.06,0.44-6.2,1.42-8.42,3.84
	c-1.79,2.04-2.81,4.66-2.86,7.38c-0.09,1.63,0.27,3.26,1.04,4.69c0.34,0.67,0.85,1.23,1.48,1.64c0.63,0.41,1.35,0.65,2.09,0.69
	l0.14,0.5c3.08-0.5,6.01-1.67,8.6-3.42c2.59-1.75,4.77-4.05,6.4-6.74c-0.65,2.37-1.96,4.5-3.76,6.15c4.03-1.63,7.53-4.36,10.11-7.89
	C176.45,65.6,177.13,64.42,176.9,63.17z"/>
<path class="st0" d="M505.31,133.54c21.89,0,39.64-17.96,39.64-40.12c0-22.16-17.75-40.12-39.64-40.12s-39.64,17.96-39.64,40.12
	C465.67,115.57,483.42,133.54,505.31,133.54z"/>
<path class="st3" d="M494.43,78.36c3.09,0,5.6-2.54,5.6-5.66c0-3.13-2.51-5.66-5.6-5.66s-5.6,2.54-5.6,5.66
	C488.83,75.82,491.34,78.36,494.43,78.36z"/>
<path class="st3" d="M503.38,99.88c7.83,0,14.18-6.43,14.18-14.35s-6.35-14.35-14.18-14.35c-7.83,0-14.18,6.42-14.18,14.35
	S495.55,99.88,503.38,99.88z"/>
<path class="st6" d="M504.56,99.88c6.36,0,11.52-5.22,11.52-11.66s-5.16-11.66-11.52-11.66s-11.52,5.22-11.52,11.66
	S498.19,99.88,504.56,99.88z"/>
<path class="st3" d="M512.38,76.33c-2.02-1.25-4.33-1.92-6.7-1.95c-2.36-0.03-4.69,0.58-6.74,1.77c-2.05,1.19-3.75,2.92-4.91,5
	c-1.17,2.08-1.76,4.44-1.71,6.84c5.87,1.49,12.04,2.63,18.3,0.36l1.48-3.66l0.87,3.67c1.91,0.79,3.82,1.46,5.73-0.01
	c0.08-2.39-0.47-4.75-1.57-6.86C516.01,79.37,514.38,77.6,512.38,76.33L512.38,76.33z"/>
<path class="st3" d="M489.22,57.31c-1.96-0.85-4.13-1.12-6.24-0.8c-2.11,0.33-4.09,1.25-5.71,2.66c-1.58,1.45-2.79,3.27-3.51,5.31
	c-0.72,2.03-0.93,4.22-0.62,6.36c0.63,4.35,3.25,8.09,5.65,11.75c2.41,3.66,4.76,7.67,4.76,12.06c0,3.17-1.24,6.2-3.45,8.44
	c-2.21,2.24-5.21,3.5-8.34,3.51c3.67,1.6,7.5,3.23,11.5,3.04c3.99-0.19,8.18-2.79,8.83-6.78c0.47-2.88-0.92-5.68-2.09-8.35
	c-1.89-4.35-3.26-8.91-4.08-13.59c-0.39-2.23-0.64-4.58,0.08-6.73c0.57-1.59,1.63-2.95,3.03-3.89c1.4-0.93,3.05-1.39,4.72-1.3
	l1.32-1.2c0.23-2.15-0.22-4.32-1.26-6.2C492.75,59.74,491.15,58.23,489.22,57.31L489.22,57.31z"/>
<path class="st5" d="M535.14,120.26c-6.87,7.91-16.53,12.77-26.91,13.53c-10.38,0.76-20.63-2.64-28.55-9.47l3.4-9.6
	c0.77-1.71,1.98-3.17,3.51-4.23c1.53-1.06,3.31-1.68,5.16-1.79l2.16-0.13l5.16-4.5c0,0,13.9-0.5,13.69-0.74l8.42,5.12l-0.01-0.04
	l3.31,0.21c1.85,0.11,3.63,0.73,5.16,1.79c1.53,1.06,2.74,2.52,3.51,4.23L535.14,120.26z"/>
<path class="st0" d="M432.16,50.72c-0.01,7.94-2.35,15.69-6.72,22.28c-4.37,6.59-10.57,11.72-17.82,14.75
	c-7.25,3.02-15.22,3.8-22.91,2.24c-7.69-1.56-14.74-5.4-20.28-11.02s-9.3-12.78-10.81-20.56c-1.52-7.79-0.72-15.85,2.3-23.18
	c3.01-7.33,8.1-13.58,14.63-17.98c6.53-4.4,14.2-6.74,22.04-6.72c5.21,0,10.37,1.03,15.18,3.05c4.81,2.02,9.18,4.98,12.86,8.72
	c3.68,3.74,6.59,8.17,8.57,13.05C431.18,40.22,432.19,45.45,432.16,50.72L432.16,50.72z"/>
<path class="st3" d="M374.15,37.6c1.64-5.29,5.37-10.14,10.52-11.92c5.16-1.79,12.7,0.94,16.58,4.84
	c7.09,7.15,8.82,31.72,3.95,39.48c-0.97-0.05-4.31-0.09-5.29-0.13l-1.39-4.68v4.63c-1.56-0.05-3.14-0.08-4.72-0.1
	c-5.32-0.07-10.41-2.22-14.19-6c-3.78-3.78-5.97-8.91-6.1-14.29C373.38,44.28,373.5,39.68,374.15,37.6z"/>
<path class="st6" d="M391.94,55.12c6.24,0,11.3-5.12,11.3-11.43c0-6.32-5.06-11.43-11.3-11.43c-6.24,0-11.3,5.12-11.3,11.43
	C380.64,50,385.7,55.12,391.94,55.12z"/>
<path class="st3" d="M382.18,33.64l13.01-6.59c2.66,1.21,4.95,3.12,6.63,5.53c1.68,2.41,2.7,5.23,2.94,8.18l0.32,3.93l-5.45-1.4
	l-0.6-5.03l-0.93,4.63l-2.51-0.65l0.02-7.8l-2.51,7.8l-8.98-2.09L382.18,33.64z"/>
<path class="st5" d="M421.94,77.2c-6.87,7.91-16.53,12.77-26.91,13.53c-10.38,0.76-20.63-2.64-28.55-9.47l3.4-9.6
	c0.77-1.71,1.98-3.17,3.51-4.23c1.53-1.06,3.31-1.68,5.16-1.79l2.16-0.13l5.16-4.5c0,0,13.9-0.5,13.69-0.74l8.42,5.13l-0.01-0.04
	l3.31,0.21c1.85,0.11,3.63,0.73,5.16,1.79c1.53,1.06,2.74,2.52,3.51,4.23L421.94,77.2z"/>
<path class="st0" d="M283.55,155.65c21.89,0,39.64-17.96,39.64-40.12c0-22.16-17.75-40.12-39.64-40.12
	c-21.89,0-39.64,17.96-39.64,40.12C243.9,137.69,261.65,155.65,283.55,155.65z"/>
<path class="st7" d="M282.45,120.5c6.99,0,12.65-5.73,12.65-12.81c0-7.07-5.67-12.81-12.65-12.81c-6.99,0-12.65,5.73-12.65,12.81
	C269.8,114.76,275.46,120.5,282.45,120.5z"/>
<path class="st5" d="M313.28,142.37c-6.87,7.91-16.53,12.77-26.91,13.53c-10.38,0.76-20.63-2.64-28.55-9.47l3.4-9.6
	c0.77-1.71,1.98-3.17,3.51-4.23c1.53-1.06,3.31-1.68,5.16-1.79l2.16-0.13l5.16-4.5c0,0,13.9-0.5,13.69-0.74l8.42,5.12l-0.01-0.04
	l3.31,0.21c1.85,0.11,3.63,0.73,5.16,1.79c1.53,1.06,2.74,2.52,3.51,4.23L313.28,142.37z"/>
<path class="st3" d="M295.79,99.75c-1.07-3.87-3.5-7.22-6.83-9.41c-2.66-1.72-5.97-2.6-8.98-1.69c-3.01,0.91-5.5,3.9-5.3,7.13
	c-0.56-0.15-1.14-0.14-1.7,0.04c-0.55,0.17-1.04,0.5-1.42,0.94c-0.76,0.9-1.28,1.98-1.53,3.13c-0.97,3.62-0.9,7.45,0.18,11.03
	l-0.06,0.51c1.47-0.25,2.58-1.52,3.27-2.88c0.69-1.36,1.09-2.87,1.84-4.19c0.75-1.33,2-2.51,3.48-2.55l-0.13,2.3
	c1.28-0.67,2.56-1.33,3.84-2c-0.3,0.74-0.61,1.47-0.91,2.21c1.12-0.47,2.23-0.95,3.35-1.42c-0.12,0.71-0.25,1.42-0.37,2.13
	c0.29-0.61,0.71-1.16,1.21-1.61c0.51-0.45,1.1-0.79,1.74-1c0.64-0.21,1.32-0.29,1.99-0.22c0.67,0.06,1.32,0.26,1.92,0.59
	c1.34,0.91,2.3,2.28,2.71,3.86c0.41,1.57,0.62,3.19,0.65,4.81C296.48,107.8,296.85,103.65,295.79,99.75L295.79,99.75z"/>
<path class="st8" d="M167.46,152.34h-3.78v164.69h3.78V152.34z"/>
<path class="st8" d="M280.99,186.81h-3.78v130.22h3.78V186.81z"/>
<path class="st8" d="M394.51,123.61h-3.78v193.42h3.78V123.61z"/>
<path class="st8" d="M508.03,167.66h-3.78v149.37h3.78V167.66z"/>
<path class="st5" d="M165.81,166.7c6.39,0,11.58-5.25,11.58-11.72c0-6.47-5.18-11.72-11.58-11.72c-6.39,0-11.58,5.25-11.58,11.72
	C154.23,161.45,159.41,166.7,165.81,166.7z"/>
<path class="st5" d="M392.85,136.06c6.39,0,11.58-5.25,11.58-11.72c0-6.47-5.18-11.72-11.58-11.72c-6.39,0-11.58,5.25-11.58,11.72
	C381.28,130.81,386.46,136.06,392.85,136.06z"/>
<path class="st5" d="M279.33,199.25c6.39,0,11.58-5.25,11.58-11.72c0-6.47-5.18-11.72-11.58-11.72c-6.39,0-11.58,5.25-11.58,11.72
	C267.75,194.01,272.94,199.25,279.33,199.25z"/>
<path class="st5" d="M506.37,178.19c6.39,0,11.58-5.25,11.58-11.72s-5.18-11.72-11.58-11.72c-6.39,0-11.58,5.25-11.58,11.72
	S499.98,178.19,506.37,178.19z"/>
<path class="st8" d="M589.54,315.53H84.14l-3.17,1.5c0,0.4,0.17,0.78,0.46,1.06c0.3,0.28,0.7,0.44,1.12,0.44h506.98
	c0.42,0,0.82-0.16,1.12-0.44c0.3-0.28,0.46-0.66,0.46-1.06s-0.17-0.78-0.46-1.06C590.36,315.68,589.96,315.53,589.54,315.53z"/>
<path class="st8" d="M88.59,326.96c6.39,0,11.58-5.25,11.58-11.72c0-6.47-5.18-11.72-11.58-11.72c-6.39,0-11.58,5.25-11.58,11.72
	C77.02,321.71,82.2,326.96,88.59,326.96z"/>
<path class="st8" d="M591.22,328.62c6.39,0,11.58-5.24,11.58-11.72c0-6.47-5.18-11.72-11.58-11.72c-6.39,0-11.58,5.25-11.58,11.72
	C579.65,323.37,584.83,328.62,591.22,328.62z"/>
</svg>
